<svg width="351" height="313" viewBox="0 0 351 313" fill="none" xmlns="http://www.w3.org/2000/svg">
<g clip-path="url(#clip0_1295_71)">
<path d="M268.426 56.317C267.213 56.0117 266 55.7145 264.787 55.4494C248.53 51.8181 231.768 51.3441 215.148 51.6413C199.936 51.9064 183.788 55.1039 168.812 51.5208C158.544 49.0705 149.446 43.3262 141.411 36.7465C131.985 29.0259 123.587 19.9316 112.729 14.1713C85.6314 -0.209352 58.4745 8.72432 38.267 26.5997C38.2333 26.6238 38.1996 26.6559 38.1743 26.68C36.8856 27.8128 35.6389 28.9858 34.4091 30.1909C34.3754 30.215 34.3417 30.2471 34.3164 30.2712C22.5743 41.84 13.5866 56.3733 8.90327 70.6414C6.59528 77.6711 4.73372 84.7971 3.32703 91.9634C3.31018 91.9955 3.31018 92.0276 3.30176 92.0598C3.00694 93.5219 2.7374 94.9921 2.4847 96.4543C2.4847 96.4864 2.47627 96.5186 2.46785 96.5507C-8.67621 162.099 17.7056 229.865 82.4221 261.968C113.428 277.353 150.053 290.633 185.802 288.127C208.646 286.536 229.653 276.317 247.688 263.342C286.629 235.32 317.079 193.391 325.999 147.22C334.204 104.745 312.91 67.7653 268.426 56.317Z" fill="#04B90B"/>
<path opacity="0.5" d="M268.426 56.317C267.213 56.0117 266 55.7145 264.787 55.4494C248.53 51.8181 231.768 51.3441 215.148 51.6413C199.936 51.9064 183.788 55.1039 168.812 51.5208C158.544 49.0705 149.446 43.3262 141.411 36.7465C131.985 29.0259 123.587 19.9316 112.729 14.1713C85.6314 -0.209352 58.4745 8.72432 38.267 26.5997C38.2333 26.6238 38.1996 26.6559 38.1743 26.68C36.8856 27.8128 35.6389 28.9858 34.4091 30.1909C34.3754 30.215 34.3417 30.2471 34.3164 30.2712C22.5743 41.84 13.5866 56.3733 8.90327 70.6414C6.59528 77.6711 4.73372 84.7971 3.32703 91.9634C3.31018 91.9955 3.31018 92.0276 3.30176 92.0598C3.00694 93.5219 2.7374 94.9921 2.4847 96.4543C2.4847 96.4864 2.47627 96.5186 2.46785 96.5507C-8.67621 162.099 17.7056 229.865 82.4221 261.968C113.428 277.353 150.053 290.633 185.802 288.127C208.646 286.536 229.653 276.317 247.688 263.342C286.629 235.32 317.079 193.391 325.999 147.22C334.204 104.745 312.91 67.7653 268.426 56.317Z" fill="white"/>
<path d="M333.563 287.975H350.604" stroke="#263238" stroke-width="1.18987" stroke-miterlimit="10" stroke-linecap="round" stroke-linejoin="round"/>
<path d="M199.161 287.975H218.071" stroke="#263238" stroke-width="1.18987" stroke-miterlimit="10" stroke-linecap="round" stroke-linejoin="round"/>
<path d="M50.6323 287.975H114.119" stroke="#263238" stroke-width="1.18987" stroke-miterlimit="10" stroke-linecap="round" stroke-linejoin="round"/>
<path d="M25.9858 287.975H40.356" stroke="#263238" stroke-width="1.18987" stroke-miterlimit="10" stroke-linecap="round" stroke-linejoin="round"/>
<path d="M91.0482 102.771C91.0482 102.771 92.1012 109.31 86.2891 112.082C86.2891 112.082 93.3057 113.512 93.9459 119.979C93.9459 119.979 94.0806 111.15 98.107 110.073C98.1154 110.081 92.6655 109.993 91.0482 102.771Z" fill="white"/>
<path d="M174.531 103.597C174.531 103.597 174.194 107.606 170.353 108.474C170.353 108.474 174.295 110.257 173.73 114.17C173.73 114.17 175.103 108.964 177.647 108.859C177.647 108.859 174.429 108.08 174.531 103.597Z" fill="white"/>
<path d="M179.163 89.9319C179.163 89.9319 178.826 93.9408 174.985 94.8085C174.985 94.8085 178.927 96.592 178.363 100.504C178.363 100.504 179.736 95.2985 182.28 95.1941C182.272 95.2021 179.054 94.4228 179.163 89.9319Z" fill="white"/>
<path d="M80.7883 90.2294C80.7883 90.2294 80.4935 96.1985 76.6356 98.0383C76.6356 98.0383 81.9592 99.2273 82.9194 105.229C82.9194 105.229 82.1192 98.5364 86.4235 97.1224C86.4235 97.1224 81.8581 95.0256 80.7883 90.2294Z" fill="white"/>
<path d="M274.272 305.97C304.868 305.97 329.672 300.672 329.672 294.136C329.672 287.6 304.868 282.302 274.272 282.302C243.675 282.302 218.871 287.6 218.871 294.136C218.871 300.672 243.675 305.97 274.272 305.97Z" fill="white" stroke="#263238" stroke-width="1.18987" stroke-miterlimit="10" stroke-linecap="round" stroke-linejoin="round"/>
<path d="M274.583 301.447C301.398 301.447 323.135 297.195 323.135 291.951C323.135 286.706 301.398 282.455 274.583 282.455C247.769 282.455 226.031 286.706 226.031 291.951C226.031 297.195 247.769 301.447 274.583 301.447Z" stroke="#263238" stroke-width="1.18987" stroke-miterlimit="10" stroke-linecap="round" stroke-linejoin="round"/>
<path d="M241.623 279.321C239.433 278.381 236.897 278.028 234.606 278.711C232.315 279.394 230.344 281.225 229.923 283.483C229.527 285.62 230.529 287.829 232.096 289.396C233.663 290.963 235.743 291.983 237.832 292.818C243.619 295.14 249.903 296.329 256.178 296.297C261.46 296.273 266.75 295.389 272.006 295.887C277.034 296.361 281.844 298.072 286.831 298.852C291.91 299.639 297.158 299.438 302.153 298.265C307.325 297.052 312.834 294.064 313.726 289.058C314.341 285.636 312.421 282.029 309.38 280.125C306.331 278.221 302.355 277.932 298.876 278.96C299.794 278.687 298.447 270.926 298.211 269.882C296.534 262.683 287.572 257.542 280.126 257.919C275.122 258.176 270.127 261.414 269.074 266.082C267.364 265.174 264.972 265.519 263.271 266.419C261.561 267.327 260.407 269.102 260.306 270.966C257.012 268.106 251.925 267.439 247.688 268.741C245.927 269.279 244.234 270.243 243.232 271.737C242.524 272.798 242.204 274.043 241.901 275.272C241.564 276.582 241.951 278.012 241.623 279.321Z" fill="#04B90B"/>
<path d="M241.286 279.459C239.096 278.519 236.56 278.165 234.269 278.848C231.978 279.531 230.007 281.363 229.586 283.62C229.19 285.757 230.192 287.966 231.759 289.533C233.326 291.1 235.406 292.12 237.495 292.955C243.282 295.277 249.566 296.466 255.841 296.434C261.123 296.41 266.413 295.526 271.669 296.024C276.698 296.498 281.507 298.21 286.494 298.989C291.573 299.776 296.821 299.575 301.816 298.402C306.988 297.189 312.497 294.201 313.39 289.196C314.004 285.773 312.084 282.166 309.043 280.262C305.994 278.358 302.018 278.069 298.539 279.097C299.457 278.824 298.11 271.063 297.874 270.019C296.198 262.82 287.235 257.679 279.789 258.056C274.785 258.313 269.79 261.551 268.737 266.219C267.028 265.311 264.635 265.656 262.934 266.556C261.224 267.464 260.07 269.239 259.969 271.103C256.675 268.243 251.588 267.576 247.351 268.878C245.59 269.416 243.897 270.38 242.895 271.875C242.187 272.935 241.867 274.18 241.564 275.409C241.218 276.727 241.606 278.149 241.286 279.459Z" stroke="#263238" stroke-width="1.18987" stroke-miterlimit="10" stroke-linecap="round" stroke-linejoin="round"/>
<path opacity="0.19" d="M241.648 279.507C239.458 278.567 236.923 278.214 234.632 278.897C232.34 279.579 230.369 281.411 229.948 283.669C229.552 285.806 230.555 288.015 232.121 289.582C233.688 291.148 235.769 292.168 237.858 293.004C243.645 295.326 249.928 296.515 256.204 296.483C261.485 296.459 266.775 295.575 272.031 296.073C277.06 296.547 281.87 298.258 286.856 299.037C291.935 299.825 297.183 299.624 302.178 298.451C307.35 297.238 312.859 294.249 313.752 289.244C314.367 285.822 312.446 282.215 309.405 280.31C306.356 278.406 302.38 278.117 298.902 279.146C299.82 278.872 298.472 271.112 298.236 270.067C296.56 262.869 287.597 257.727 280.151 258.105C275.148 258.362 270.153 261.6 269.1 266.267C267.39 265.359 264.998 265.705 263.296 266.605C261.586 267.513 260.432 269.288 260.331 271.152C257.038 268.292 251.95 267.625 247.713 268.926C245.952 269.465 244.259 270.429 243.257 271.923C242.549 272.984 242.229 274.229 241.926 275.458C241.589 276.768 241.977 278.198 241.648 279.507Z" fill="white"/>
<path opacity="0.2" d="M295.321 264.981C291.388 261.583 284.877 262.081 280.614 265.102C276.352 268.122 274.053 273.103 273.075 278.076C271.416 276.935 269.049 277.056 267.272 278.02C265.494 278.984 264.248 280.655 263.414 282.439C260.449 280.318 256.035 280.294 253.045 282.366C251.95 283.122 251.065 284.118 250.046 284.969C247.241 287.331 243.467 288.609 239.736 288.464C236.004 288.319 232.349 286.745 229.763 284.174C229.763 284.174 226.756 288.247 238.312 292.859C249.869 297.478 257.366 296.884 263.608 296.136C269.858 295.389 277.658 296.731 283.124 298.522C288.591 300.306 304.52 300.459 310.138 294.65C315.756 288.842 315.133 277.522 298.893 278.566C298.901 278.566 299.087 268.227 295.321 264.981Z" fill="black"/>
<path d="M262.951 255.43C260.668 254.433 259.615 251.742 259.935 249.364C260.255 246.986 261.645 244.873 263.145 242.953C264.636 241.025 266.287 239.161 267.238 236.944C270.978 228.267 262.934 218.008 266.514 209.275" stroke="#263238" stroke-width="1.18987" stroke-miterlimit="10" stroke-linecap="round" stroke-linejoin="round"/>
<path d="M295.625 254.763C293.485 254.136 292.23 251.959 291.826 249.862C290.554 243.258 295.322 237.04 296.358 230.404C297.208 224.893 295.456 219.357 293.713 214.039" stroke="#263238" stroke-width="1.18987" stroke-miterlimit="10" stroke-linecap="round" stroke-linejoin="round"/>
<path d="M279.772 252.826C277.489 250.777 277.75 247.202 278.98 244.455C280.21 241.707 282.223 239.281 283.057 236.405C284.043 233.015 283.217 229.19 280.892 226.459" stroke="#263238" stroke-width="1.18987" stroke-miterlimit="10" stroke-linecap="round" stroke-linejoin="round"/>
<path d="M259.615 215.71C259.422 218.731 259.615 221.775 260.205 224.756" stroke="#263238" stroke-width="1.18987" stroke-miterlimit="10" stroke-linecap="round" stroke-linejoin="round"/>
<path d="M259.784 234.187C260.07 237.184 257.998 239.851 256.338 242.414C254.452 245.33 252.978 248.528 252.438 251.91C251.899 255.292 252.337 258.875 254.073 261.88" stroke="#263238" stroke-width="1.18987" stroke-miterlimit="10" stroke-linecap="round" stroke-linejoin="round"/>
<path d="M146.625 113.124L147.434 122.95L147.451 123.183C146.811 123.102 146.095 123.07 145.311 123.062C139.727 123.038 131.017 124.822 124.801 126.284C120.463 127.312 117.329 128.188 117.329 128.188L116.394 124.653L112.873 111.381C110.001 109.027 105.621 99.78 105.621 99.78C102.058 99.2578 97.6269 96.1728 96.6666 91.8586C95.7064 87.5524 101.266 87.9621 101.266 87.9621L104.871 85.8492L109.386 74.0957C109.386 74.0957 105.418 65.3468 113.227 61.8199C121.027 58.293 147.586 70.5608 147.586 70.5608L150.458 82.0572C154.147 83.4953 150.247 92.1076 150.247 92.1076C150.247 92.1076 150.601 92.2442 151.014 97.3297C151.418 102.423 146.625 113.124 146.625 113.124Z" fill="white"/>
<path d="M137.755 85.8088C138.934 90.0829 143.087 93.1277 142.935 94.2364C142.742 95.6503 140.905 97.5624 139.254 97.5865" stroke="#263238" stroke-width="1.18987" stroke-miterlimit="10" stroke-linecap="round" stroke-linejoin="round"/>
<path d="M145.934 78.9396C145.934 78.9396 142.296 76.1037 139.465 79.743" stroke="#263238" stroke-width="2.37975" stroke-miterlimit="10" stroke-linecap="round" stroke-linejoin="round"/>
<path d="M125.011 100.527C125.011 100.527 126.873 105.147 134.26 104.986" stroke="#263238" stroke-width="1.18987" stroke-miterlimit="10" stroke-linecap="round" stroke-linejoin="round"/>
<path d="M129.762 82.5556C127.1 80.989 123.41 81.1256 121.456 84.5962" stroke="#263238" stroke-width="2.37975" stroke-miterlimit="10" stroke-linecap="round" stroke-linejoin="round"/>
<path d="M129.366 89.296C129.619 90.5493 129.248 91.666 128.54 91.7946C127.833 91.9231 127.058 91.0153 126.814 89.762C126.561 88.5087 126.932 87.392 127.639 87.2635C128.338 87.1349 129.113 88.0428 129.366 89.296Z" fill="#263238"/>
<path d="M144.553 86.4834C144.805 87.7367 144.435 88.8534 143.727 88.982C143.02 89.1105 142.245 88.2027 142 86.9494C141.748 85.6961 142.118 84.5794 142.826 84.4508C143.525 84.3223 144.3 85.2301 144.553 86.4834Z" fill="#263238"/>
<path d="M105.267 91.0794C105.267 91.0794 99.0923 85.9699 97.1465 89.5048C95.1923 93.0317 101.535 101.13 107.49 98.6474" stroke="#263238" stroke-width="1.18987" stroke-miterlimit="10" stroke-linecap="round" stroke-linejoin="round"/>
<path d="M146.735 71.9592C146.735 71.9592 147.206 86.6853 148.908 89.9632C150.609 93.241 152.084 94.8638 150.281 103.42C148.478 111.968 141.605 121.954 134.243 122.621C126.881 123.288 110.135 112.643 105.351 99.3548" stroke="#263238" stroke-width="1.18987" stroke-miterlimit="10" stroke-linecap="round" stroke-linejoin="round"/>
<path d="M105.435 91.6818C105.435 91.6818 109.916 89.4725 109.099 85.6403C108.282 81.8162 108.855 81.3502 112.064 79.3819C115.273 77.4136 113.285 73.3485 110.211 69.3396C107.136 65.3387 112.982 60.5505 117.741 62.567C122.501 64.5755 149.624 74.7464 156.91 71.7256C164.196 68.7049 162.107 59.0562 152.294 53.6494C152.294 53.6494 146.996 47.624 148.419 42.0645C149.843 36.5051 115.855 19.7464 99.9345 53.8904C99.9345 53.8904 92.3788 56.7103 90.7952 66.4152C89.2453 75.9675 100.196 88.3236 100.196 88.3236C100.196 88.3236 104.079 90.2276 105.435 91.6818Z" fill="#263238"/>
<path d="M110.018 60.824C112.511 57.6265 117.144 56.4696 121.28 57.032C125.415 57.5943 129.172 59.6028 132.702 61.7398C136.231 63.8768 139.701 66.1986 143.643 67.5162C145.884 68.2633 148.344 68.6731 150.626 68.0545C152.437 67.5644 154.072 66.3995 154.889 64.7847" stroke="white" stroke-width="1.18987" stroke-miterlimit="10" stroke-linecap="round" stroke-linejoin="round"/>
<path d="M102.95 58.2372C99.9177 58.43 97.2728 60.5991 96.0935 63.2744C94.9143 65.9417 95.049 69.0106 95.8829 71.7984C96.4726 73.7586 97.3823 75.5984 98.4015 77.39" stroke="white" stroke-width="1.18987" stroke-miterlimit="10" stroke-linecap="round" stroke-linejoin="round"/>
<path d="M147.223 111.807C146.709 113.429 146.709 115.165 146.81 116.86C146.928 118.965 147.097 120.724 147.51 122.797" stroke="#263238" stroke-width="1.18987" stroke-miterlimit="10" stroke-linecap="round" stroke-linejoin="round"/>
<path d="M112.831 110.819C114.288 115.736 115.905 121.665 117.388 128.245" stroke="#263238" stroke-width="1.18987" stroke-miterlimit="10" stroke-linecap="round" stroke-linejoin="round"/>
<path d="M147.678 84.6916C147.678 84.6916 149.051 81.1165 151.662 82.6992C154.273 84.2819 150.121 92.3238 150.121 92.3238" stroke="#263238" stroke-width="1.18987" stroke-miterlimit="10" stroke-linecap="round" stroke-linejoin="round"/>
<path d="M151.494 69.4843C151.494 69.4843 152.799 79.615 149.632 82.8125L147.206 83.5194L145.926 70.0707L151.494 69.4843Z" fill="#263238"/>
<path d="M89.2117 56.791C89.2117 56.791 80.6704 56.2206 72.4155 46.8531C64.1607 37.4856 70.832 30.9139 74.9678 27.395C79.1037 23.8842 89.2201 14.2275 93.4654 9.75265C97.7024 5.28581 106.193 -0.458414 115.787 1.03589C125.381 2.52216 134.698 8.0093 143.845 10.5641C152.993 13.1188 162.065 22.639 163.404 28.809C164.744 34.979 161.863 44.7161 158.519 47.054L152.766 46.8852L155.309 55.2003C155.309 55.2003 121.102 42.2979 90.5425 66.512L93.1201 57.8515L89.2117 56.791Z" fill="white"/>
<path d="M104.921 45.7118C104.879 49.4154 104.98 53.111 105.216 56.8066L91.0311 66.865L94.5015 50.5562L104.921 45.7118Z" fill="#04B90B"/>
<path opacity="0.6" d="M104.921 45.7118C104.879 49.4154 105.09 53.5288 105.334 57.2163L91.0311 66.857L94.5015 50.5482L104.921 45.7118Z" fill="white"/>
<path d="M106.606 1.2364C107.945 0.754363 109.528 1.31673 110.455 2.35311C111.382 3.38948 111.727 4.81147 111.71 6.17723C111.668 10.636 108.189 14.412 104.373 16.9989C100.558 19.5858 96.1944 21.4737 92.8335 24.5829C89.0177 28.1178 86.7855 33.163 86.7771 38.2324C86.7687 43.3098 88.9924 48.3471 92.7998 51.898C93.1788 52.2435 93.5663 52.5809 93.9369 52.9344L92.7577 57.5057C92.7577 57.5057 77.5536 55.6097 72.3901 46.8608C67.2266 38.1119 68.8354 34.0387 73.3672 28.8569C77.8989 23.6831 83.8037 20.9194 89.5821 13.0783C95.3605 5.23727 106.606 1.2364 106.606 1.2364Z" fill="#04B90B"/>
<path opacity="0.6" d="M106.606 1.2364C107.945 0.754363 109.528 1.31673 110.455 2.35311C111.382 3.38948 111.727 4.81147 111.71 6.17723C111.668 10.636 108.189 14.412 104.373 16.9989C100.558 19.5858 96.1944 21.4737 92.8335 24.5829C89.0177 28.1178 86.7855 33.163 86.7771 38.2324C86.7687 43.3098 88.9924 48.3471 92.7998 51.898C93.1788 52.2435 93.5663 52.5809 93.9369 52.9344L92.7577 57.5057C92.7577 57.5057 77.5536 55.6097 72.3901 46.8608C67.2266 38.1119 68.8354 34.0387 73.3672 28.8569C77.8989 23.6831 83.8037 20.9194 89.5821 13.0783C95.3605 5.23727 106.606 1.2364 106.606 1.2364Z" fill="white"/>
<path d="M91.0311 66.8569C91.0311 66.8569 114.532 43.6229 155.208 55.6497L150.205 42.4821C150.205 42.4821 121.945 35.0749 94.5015 50.5562L91.0311 66.8569Z" stroke="#263238" stroke-width="1.18987" stroke-miterlimit="10" stroke-linecap="round" stroke-linejoin="round"/>
<path d="M152.917 49.5361C155.815 49.0942 161.442 46.0333 162.722 43.5107C164.002 40.9961 164.297 38.1199 164.247 35.3241C164.171 31.3393 163.396 27.2983 161.408 23.7955C157.045 16.1071 147.863 12.3392 139.347 9.10959C134.032 7.10112 128.725 5.09265 123.41 3.07615C120.184 1.855 116.891 0.61778 113.429 0.400865C106.555 -0.0329643 100.078 3.62245 95.0574 8.11339C90.0371 12.6124 86.0023 18.0352 80.9062 22.4539C78.4213 24.6069 75.6922 26.511 73.3926 28.8408C71.0846 31.1706 69.1894 34.0387 68.8524 37.2201C68.3639 41.8075 71.1941 46.1699 74.6729 49.3834C78.1012 52.5568 81.5548 56.2845 92.7157 57.5539" stroke="#263238" stroke-width="1.18987" stroke-miterlimit="10" stroke-linecap="round" stroke-linejoin="round"/>
<path d="M136.147 40.7076C138.455 39.3981 140.493 37.6628 142.11 35.6222" stroke="#263238" stroke-width="1.18987" stroke-miterlimit="10" stroke-linecap="round" stroke-linejoin="round"/>
<path d="M102.319 46.5717C98.2838 45.2622 94.9229 42.1932 93.3815 38.4012" stroke="#263238" stroke-width="1.18987" stroke-miterlimit="10" stroke-linecap="round" stroke-linejoin="round"/>
<path d="M105.275 7.55132C101.501 7.29424 98.2075 9.92935 95.7816 12.7091C93.3641 15.4888 91.2077 18.6863 87.83 20.3172" stroke="#263238" stroke-width="1.18987" stroke-miterlimit="10" stroke-linecap="round" stroke-linejoin="round"/>
<path d="M241.387 165.714L206.616 191.599C206.616 191.599 193.265 150.112 192.481 144.946C190.342 139.973 182.584 133.032 182.584 133.032C182.584 133.032 154.079 131.682 152.024 130.565C149.969 129.449 149.733 122.941 149.733 122.941C148.992 122.933 148.217 122.941 147.433 122.957C146.734 122.981 146.027 123.022 145.311 123.062C138.513 123.544 130.882 125.143 125.095 126.589C119.687 127.938 115.888 129.143 115.888 129.143L117.985 137.868L116.461 140.053C111.466 143.62 84.1068 152.265 77.0228 155.318C73.1649 158.081 68.1109 162.773 68.1109 162.773C68.1109 162.773 43.5653 208.703 39.7496 214.311C35.9338 219.91 36.1191 226.032 36.1191 226.032C38.9325 231.776 43.0852 232.154 47.3474 233.56C48.0466 233.793 48.7541 234.05 49.4617 234.363C54.4567 236.597 98.5023 233.271 98.5023 233.271C98.5023 233.271 95.3351 248.23 109.773 242.542C132.878 233.431 188.118 239.738 188.118 239.738L186.796 206.02L199.313 219.677C199.313 219.677 205.167 222.971 212.209 218.769C222.923 212.174 253.955 175.74 253.955 175.74C250.964 168.951 241.387 165.714 241.387 165.714ZM101.897 218.319L99.3783 215.917C95.015 213.403 78.7412 210.47 78.7412 210.47L90.1969 194.684C90.1969 194.684 102.284 212.519 102.815 214.029C103.346 215.54 101.897 218.319 101.897 218.319Z" fill="white"/>
<path d="M125.996 254.321L128.591 307.633C128.591 307.633 120.1 305.609 117.741 302.235C115.383 298.86 110.127 248.319 110.127 248.319C110.127 248.319 115.147 252.746 125.996 254.321Z" fill="#04B90B"/>
<path opacity="0.56" d="M125.996 254.321L128.591 307.633C128.591 307.633 120.1 305.609 117.741 302.235C115.383 298.86 110.127 248.319 110.127 248.319C110.127 248.319 115.147 252.746 125.996 254.321Z" fill="white"/>
<path d="M103.178 214.898L89.9279 195.183L101.047 181.164C101.047 181.164 101.864 189.093 106.817 192.773C114.709 198.645 112.974 216.697 112.974 216.697L103.178 214.898Z" fill="#04B90B"/>
<path opacity="0.6" d="M103.178 214.898L89.9279 195.183L101.047 181.164C101.047 181.164 101.864 189.093 106.817 192.773C114.709 198.645 112.974 216.697 112.974 216.697L103.178 214.898Z" fill="white"/>
<path d="M183.907 163.537C183.907 163.537 193.543 204.429 199.128 210.961C204.712 217.492 204.83 192.073 206.801 191.719C208.772 191.366 212.066 206.606 210.794 211.21C210.794 211.21 211.552 213.628 214.349 211.21C217.137 208.791 251.891 178.062 251.891 178.062C251.891 178.062 216.185 221.148 205.976 220.882C197.342 222.015 188.017 207.305 188.017 207.305L183.907 163.537Z" fill="#04B90B"/>
<path opacity="0.6" d="M183.907 163.537C183.907 163.537 193.543 204.429 199.128 210.961C204.712 217.492 204.83 192.073 206.801 191.719C208.772 191.366 212.066 206.606 210.794 211.21C210.794 211.21 211.552 213.628 214.349 211.21C217.137 208.791 251.891 178.062 251.891 178.062C251.891 178.062 216.185 221.148 205.976 220.882C197.342 222.015 188.017 207.305 188.017 207.305L183.907 163.537Z" fill="white"/>
<path d="M80.4596 207.932L78.3201 210.664C78.3201 210.664 61.1955 208.615 47.3644 233.552C43.0938 232.138 38.9495 231.769 36.1361 226.025C36.1361 226.025 35.9508 219.895 39.7665 214.303C43.5823 208.696 68.4059 162.236 68.4059 162.236C68.4059 162.236 72.1542 158.171 77.0313 155.31C94.7372 146.393 111.483 143.613 116.469 140.046L117.994 137.861L115.897 129.136C115.897 129.136 119.687 127.931 125.103 126.581L127.9 137.965C128.852 141.846 126.662 145.798 122.762 147.236L82.3802 162.107C79.7689 163.063 77.6378 164.927 76.3996 167.313L54.2631 209.957C54.6506 209.579 63.4529 201.039 80.4596 207.932Z" fill="#04B90B"/>
<path opacity="0.6" d="M80.4596 207.932L78.3201 210.664C78.3201 210.664 61.1955 208.615 47.3644 233.552C43.0938 232.138 38.9495 231.769 36.1361 226.025C36.1361 226.025 35.9508 219.895 39.7665 214.303C43.5823 208.696 68.4059 162.236 68.4059 162.236C68.4059 162.236 73.7126 157.648 77.0313 155.31C93.8022 147.06 111.483 143.613 116.469 140.046L117.994 137.861L115.897 129.136C115.897 129.136 119.687 127.931 125.103 126.581L127.9 137.965C128.852 141.846 126.662 145.798 122.762 147.236L82.3802 162.107C79.7689 163.063 77.6378 164.927 76.3996 167.313L54.2631 209.957C54.6506 209.579 63.4529 201.039 80.4596 207.932Z" fill="white"/>
<path d="M244.925 163.666L255.581 149.285C255.581 149.285 263.12 144.449 265.849 143.211C268.578 141.974 268.966 139.492 270.271 140.359C271.568 141.227 270.398 146.313 267.668 147.919C264.939 149.534 261.823 151.141 262.21 152.258C262.598 153.374 278.459 152.009 278.459 152.009C278.459 152.009 298.683 151.743 298.969 153.238C299.256 154.732 286.385 156.965 286.385 156.965C286.385 156.965 300.225 156.813 300.258 157.568C300.292 158.323 292.366 160.926 292.366 160.926C292.366 160.926 297.967 161.207 297.706 162.364C297.436 163.529 291.717 165.015 291.717 165.015C291.717 165.015 280.017 171.836 277.423 172.945C274.82 174.062 257.021 171.957 257.021 171.957L253.98 175.709C253.98 175.709 248.834 168.735 243.375 165.763L244.925 163.666Z" fill="white"/>
<path d="M205.631 207.876C206.439 202.534 206.667 197.248 206.717 191.849" stroke="#263238" stroke-width="1.18987" stroke-miterlimit="10" stroke-linecap="round" stroke-linejoin="round"/>
<path d="M147.485 123.014C148.352 122.982 149.228 122.966 150.121 122.958L150.98 128.14C151.267 129.859 152.808 131.12 154.628 131.136L182.046 132.912C184.059 132.928 191.699 142.882 192.987 146.634L206.802 191.712L241.396 165.513C241.396 165.513 248.169 166.389 253.972 175.708C253.972 175.708 231.701 203.987 211.485 219.075C208.528 221.276 201.908 221.775 199.271 219.236C194.832 214.962 190.806 211.138 187.698 207.217" stroke="#263238" stroke-width="1.18987" stroke-miterlimit="10" stroke-linecap="round" stroke-linejoin="round"/>
<path d="M95.6646 194.107C97.9725 192.685 100.289 191.263 102.597 189.841" stroke="#263238" stroke-width="1.18987" stroke-miterlimit="10" stroke-linecap="round" stroke-linejoin="round"/>
<path d="M98.225 195.544C100.053 194.981 101.99 194.732 103.919 194.821" stroke="#263238" stroke-width="1.18987" stroke-miterlimit="10" stroke-linecap="round" stroke-linejoin="round"/>
<path d="M90.2058 195.07C94.4175 200.67 98.3259 206.478 101.897 212.471C102.698 213.813 102.925 215.388 102.571 216.89L85.7415 287.893" stroke="#263238" stroke-width="1.18987" stroke-miterlimit="10" stroke-linecap="round" stroke-linejoin="round"/>
<path d="M182.045 152.443L187.857 205.924C188.245 217.927 189.18 225.527 189.727 240.567" stroke="#263238" stroke-width="1.18987" stroke-miterlimit="10" stroke-linecap="round" stroke-linejoin="round"/>
<path d="M117.295 139.628L125.103 187.301L135.548 183.975C142.733 181.686 150.306 180.665 157.879 180.963L168.543 181.389L155.689 130.663H160.566L188.026 207.314L189.719 241.305C189.719 241.305 138.631 230.612 110.009 245.033L112.258 265.937C112.258 265.937 113.614 271.657 115.054 288.311L92.3114 287.918L85.7412 287.894L102.335 218.425C102.335 218.425 116.689 219.437 116.242 208.447C115.796 197.456 111.87 142.223 111.87 142.223L117.295 139.628Z" fill="#263238"/>
<path d="M138.092 139.179C138.092 140.432 137.031 141.444 135.717 141.444C134.403 141.444 133.342 140.432 133.342 139.179C133.342 137.925 134.403 136.913 135.717 136.913C137.031 136.913 138.092 137.925 138.092 139.179Z" fill="#263238"/>
<path d="M140.804 150.185C140.804 151.438 139.743 152.45 138.429 152.45C137.115 152.45 136.054 151.438 136.054 150.185C136.054 148.931 137.115 147.919 138.429 147.919C139.743 147.919 140.804 148.931 140.804 150.185Z" fill="#263238"/>
<path d="M153.28 210.704C161.863 209.322 170.505 208.237 179.173 207.45" stroke="white" stroke-width="1.18987" stroke-miterlimit="10" stroke-linecap="round" stroke-linejoin="round"/>
<path d="M138.438 213.395C141.967 212.688 145.505 212.021 149.051 211.411" stroke="white" stroke-width="1.18987" stroke-miterlimit="10" stroke-linecap="round" stroke-linejoin="round"/>
<path d="M179.19 210.382C172.207 213.065 165.165 215.612 158.072 218.014" stroke="white" stroke-width="1.18987" stroke-miterlimit="10" stroke-linecap="round" stroke-linejoin="round"/>
<path d="M177.555 153.511C178.28 157.857 179.333 162.163 180.697 166.373" stroke="#263238" stroke-width="1.18987" stroke-miterlimit="10" stroke-linecap="round" stroke-linejoin="round"/>
<path d="M278.602 158.163C278.602 158.163 298.86 154.981 298.961 153.254C299.071 151.527 284.406 152.418 280.944 152.169C277.482 151.92 262.985 153.656 262.505 152.788C262.025 151.92 263.196 151.719 266.397 149.181C269.589 146.634 271.939 142.159 271.08 140.737C270.229 139.315 267.374 142.472 265.209 143.629C263.449 144.569 256.803 148.169 255.581 149.743C254.36 151.318 246.366 161.858 243.334 165.875" stroke="#263238" stroke-width="1.18987" stroke-miterlimit="10" stroke-linecap="round" stroke-linejoin="round"/>
<path d="M279.049 157.97C279.049 157.97 300.335 156.098 300.259 157.584C300.124 160.051 285.846 161.995 280.001 162.381" stroke="#263238" stroke-width="1.18987" stroke-miterlimit="10" stroke-linecap="round" stroke-linejoin="round"/>
<path d="M279.866 162.509C279.866 162.509 297.967 160.09 297.698 162.38C297.437 164.67 276.85 168.373 276.85 168.373" stroke="#263238" stroke-width="1.18987" stroke-miterlimit="10" stroke-linecap="round" stroke-linejoin="round"/>
<path d="M253.222 176.64C255.252 173.86 256.609 171.948 256.609 171.948C256.609 171.948 274.036 173.772 276.547 173.314C279.048 172.856 290.807 165.666 290.807 165.666" stroke="#263238" stroke-width="1.18987" stroke-miterlimit="10" stroke-linecap="round" stroke-linejoin="round"/>
<path d="M260.921 158.065C264.762 158.467 268.283 160.99 269.757 164.396" stroke="#263238" stroke-width="1.18987" stroke-miterlimit="10" stroke-linecap="round" stroke-linejoin="round"/>
<path d="M209.48 193.471C211.442 196.339 211.661 199.946 211.813 203.369" stroke="#263238" stroke-width="1.18987" stroke-miterlimit="10" stroke-linecap="round" stroke-linejoin="round"/>
<path d="M110.102 245.989L116.344 296.803C116.344 296.803 116.049 302.154 120.758 304.861C125.466 307.568 146.103 311.915 157.626 311.224C169.15 310.541 183.789 309.85 189.062 305.962C194.344 302.073 193.139 291.541 193.139 291.541L196.98 259.727C196.98 259.727 200.476 247.579 196.264 243.932C188.582 237.296 123.697 232.259 110.102 245.989Z" fill="white"/>
<path d="M110.119 248.328C110.119 248.328 113.657 251.461 118.711 252.907C123.765 254.353 185.962 252.65 193.67 251.212C201.377 249.774 198.597 243.749 194.302 242.061C190.006 240.374 150.104 234.831 132.483 238.655C116.815 242.045 107.086 242.294 110.119 248.328Z" fill="#04B90B"/>
<path opacity="0.6" d="M110.119 248.328C110.119 248.328 113.657 251.461 118.711 252.908C123.765 254.354 185.962 252.65 193.67 251.212C201.377 249.774 198.597 243.749 194.301 242.062C190.006 240.375 154.804 235.506 133.578 238.27C117.91 241.644 107.086 242.295 110.119 248.328Z" fill="white"/>
<path d="M198.648 246.865C198.648 248.431 196.854 249.917 193.67 251.211C186.249 254.264 171.297 256.337 154.072 256.337C137.621 256.337 123.259 254.449 115.543 251.629C111.711 250.231 109.512 248.608 109.512 246.865C109.512 241.627 129.467 237.385 154.08 237.385C178.693 237.385 198.648 241.618 198.648 246.865Z" stroke="#263238" stroke-width="1.18987" stroke-miterlimit="10" stroke-linecap="round" stroke-linejoin="round"/>
<path d="M193.678 251.212C186.257 254.265 171.306 256.338 154.08 256.338C137.629 256.338 123.267 254.45 115.552 251.63C121.313 248.191 136.795 245.717 154.981 245.717C172.434 245.709 187.394 247.991 193.678 251.212Z" fill="#263238"/>
<path d="M109.512 246.865L116.478 299.302C116.807 301.744 118.424 303.849 120.766 304.861C129.535 308.637 153.086 316.213 186.687 307.336C189.576 306.573 191.682 304.178 192.027 301.334L194.158 283.861L194.369 282.077L196.087 267.97L196.466 264.845L198.648 246.857" stroke="#263238" stroke-width="1.18987" stroke-miterlimit="10" stroke-linecap="round" stroke-linejoin="round"/>
<path d="M146.398 311.337C146.398 311.337 142.532 307.022 144.343 301.415C144.343 301.415 139.213 303.865 139.061 308.179C139.061 308.179 131.514 306.163 132.424 295.655C132.424 295.655 128.195 302.13 131.969 309.184C135.742 316.245 146.398 311.337 146.398 311.337Z" fill="#263238"/>
<path d="M166.05 311.37C166.05 311.37 171.559 306.63 172.974 298.154C172.974 298.154 174.751 303.071 172.797 309C172.797 309 177.952 307.136 179.19 301.376C179.19 301.376 180.26 307.811 177.059 311.37C173.858 314.929 166.05 311.37 166.05 311.37Z" fill="#263238"/>
<path d="M211.51 269.69C209.514 276.366 202.337 283.644 194.15 283.861L194.36 282.078C201.368 281.732 207.913 275.225 209.708 269.2C210.146 267.737 210.878 264.154 208.242 262.531C206.759 261.64 205.302 261.366 203.761 261.728C199.76 262.66 196.795 267.48 196.769 267.537C196.618 267.786 196.357 267.938 196.079 267.97L196.458 264.845C197.839 263.126 200.273 260.716 203.314 260.001C205.353 259.535 207.341 259.88 209.244 261.037C211.855 262.628 212.673 265.785 211.51 269.69Z" fill="#263238"/>
<path d="M147.366 249.717C151.932 252.184 157.559 252.32 162.663 251.172C164.432 250.778 166.201 250.216 167.7 249.227" stroke="white" stroke-width="1.18987" stroke-miterlimit="10" stroke-linecap="round" stroke-linejoin="round"/>
<path d="M174.381 250.046C172.966 251.404 171.213 252.44 169.31 253.051" stroke="white" stroke-width="1.18987" stroke-miterlimit="10" stroke-linecap="round" stroke-linejoin="round"/>
<path d="M115.586 285.371C98.8906 287.251 97.2396 268.878 101.729 265.969C106.219 263.061 115.047 273.007 115.047 273.007" stroke="white" stroke-width="2.37975" stroke-miterlimit="10" stroke-linecap="round" stroke-linejoin="round"/>
<path d="M159.673 249.227L126.544 191.801C126.544 191.801 122.914 189.728 123.158 193.874C123.402 198.027 153.912 249.589 153.912 249.589L159.673 249.227Z" fill="white" stroke="#263238" stroke-width="1.18987" stroke-miterlimit="10" stroke-linecap="round" stroke-linejoin="round"/>
<path d="M147.089 261.655C157.113 262.242 169.79 262.017 180.707 258.811" stroke="#263238" stroke-width="1.18987" stroke-miterlimit="10" stroke-linecap="round" stroke-linejoin="round"/>
<path d="M129.442 259.622C129.442 259.622 132.811 260.273 138.118 260.883" stroke="#263238" stroke-width="1.18987" stroke-miterlimit="10" stroke-linecap="round" stroke-linejoin="round"/>
<path d="M97.9719 185.935C91.1827 193.238 85.0084 201.063 79.5332 209.314" stroke="#263238" stroke-width="1.18987" stroke-miterlimit="10" stroke-linecap="round" stroke-linejoin="round"/>
<path d="M75.7092 209.001C71.6323 208.093 67.2859 208.286 63.3101 209.555" stroke="#263238" stroke-width="1.18987" stroke-miterlimit="10" stroke-linecap="round" stroke-linejoin="round"/>
<path d="M74.3616 160.958C74.3616 160.958 89.5573 169.241 95.1419 181.959" stroke="#263238" stroke-width="1.18987" stroke-miterlimit="10" stroke-linecap="round" stroke-linejoin="round"/>
<path d="M86.9121 212.704C87.1985 223.084 93.9793 233.697 93.9793 233.697L118.904 230.066L117.253 225.462C118.104 225.864 119.83 225.727 121.001 225.984C128.338 227.615 140.4 227.294 140.4 227.294C143.146 224.924 144.031 223.502 144.831 222.16C146.861 218.738 144.949 217.806 144.949 217.806C147.889 213.877 145.631 211.041 145.631 211.041C149.978 208.679 148.124 207.378 148.124 207.378C145.328 203.208 128.827 205.008 128.827 205.008L114.338 216.649L104.525 215.01L86.9121 212.704Z" fill="white"/>
<path d="M112.991 216.794L115.164 216.119L128.818 205.008C128.818 205.008 146.642 204.108 147.914 207.161C149.194 210.214 145.471 211.628 142.279 212.841" stroke="#263238" stroke-width="1.18987" stroke-miterlimit="10" stroke-linecap="round" stroke-linejoin="round"/>
<path d="M145.042 211.756C145.042 211.756 149.447 213.596 143.399 218.706" stroke="#263238" stroke-width="1.18987" stroke-miterlimit="10" stroke-linecap="round" stroke-linejoin="round"/>
<path d="M144.461 217.935C146.398 216.89 147.67 221.598 140.872 223.864" stroke="#263238" stroke-width="1.18987" stroke-miterlimit="10" stroke-linecap="round" stroke-linejoin="round"/>
<path d="M144.958 222.465L139.979 227.567C139.979 227.567 128.768 228.499 118.685 225.398L117.582 225.703" stroke="#263238" stroke-width="1.18987" stroke-miterlimit="10" stroke-linecap="round" stroke-linejoin="round"/>
<path d="M59.8649 218.376C64.5735 213.548 71.4385 210.68 78.3541 210.664C79.7944 210.664 81.218 210.929 82.591 211.339C87.4681 212.785 107.507 214.962 113.623 217.011L118.929 229.793C97.9467 234.854 69.9729 235.264 53.1599 234.525C49.4536 234.364 45.023 233.119 41.0977 231.207C36.507 228.973 34.7465 223.566 37.1387 219.212L67.3195 163.802C68.145 162.3 74.0329 156.998 75.6839 156.371L91.0649 149.293C92.2189 148.747 94.8806 147.67 96.1104 147.285L113.117 141.846C114.414 141.356 118.137 138.512 117.801 137.218L115.703 129.056C115.703 129.056 129.046 123.681 147.476 123.022" stroke="#263238" stroke-width="1.18987" stroke-miterlimit="10" stroke-linecap="round" stroke-linejoin="round"/>
<path d="M32.017 117.729H13.8142V128.205H32.017V117.729Z" stroke="#263238" stroke-width="1.18987" stroke-miterlimit="10" stroke-linecap="round" stroke-linejoin="round"/>
<path d="M40.1119 131.233H21.9091V141.709H40.1119V131.233Z" stroke="#263238" stroke-width="1.18987" stroke-miterlimit="10" stroke-linecap="round" stroke-linejoin="round"/>
<path d="M329.184 114.322H310.981V124.798H329.184V114.322Z" stroke="#263238" stroke-width="1.18987" stroke-miterlimit="10" stroke-linecap="round" stroke-linejoin="round"/>
<path d="M317.837 127.826H299.635V138.303H317.837V127.826Z" stroke="#263238" stroke-width="1.18987" stroke-miterlimit="10" stroke-linecap="round" stroke-linejoin="round"/>
<path d="M61.4904 260.53H46.2778V264.434H61.4904V260.53Z" stroke="#263238" stroke-width="1.18987" stroke-miterlimit="10" stroke-linecap="round" stroke-linejoin="round"/>
<path d="M70.1157 247.893H53.0585V258.369H70.1157V247.893Z" stroke="#263238" stroke-width="1.18987" stroke-miterlimit="10" stroke-linecap="round" stroke-linejoin="round"/>
<path d="M203.828 51.8504V7.83276H319.598V85.6891H302.347" stroke="#263238" stroke-width="1.18987" stroke-miterlimit="10" stroke-linecap="round" stroke-linejoin="round"/>
<path d="M203.828 67.918V61.3062" stroke="#263238" stroke-width="1.18987" stroke-miterlimit="10" stroke-linecap="round" stroke-linejoin="round"/>
<path d="M219.352 85.6892H203.828V72.2566" stroke="#263238" stroke-width="1.18987" stroke-miterlimit="10" stroke-linecap="round" stroke-linejoin="round"/>
<path d="M233.503 17.2408C234.396 17.2408 235.12 16.5502 235.12 15.6983C235.12 14.8464 234.396 14.1558 233.503 14.1558C232.61 14.1558 231.886 14.8464 231.886 15.6983C231.886 16.5502 232.61 17.2408 233.503 17.2408Z" stroke="#263238" stroke-width="1.18987" stroke-miterlimit="10" stroke-linecap="round" stroke-linejoin="round"/>
<path d="M263.355 15.819C263.355 16.6706 262.631 17.3615 261.738 17.3615C260.845 17.3615 260.121 16.6706 260.121 15.819C260.121 14.9674 260.845 14.2765 261.738 14.2765C262.631 14.2765 263.355 14.9674 263.355 15.819Z" stroke="#263238" stroke-width="1.18987" stroke-miterlimit="10" stroke-linecap="round" stroke-linejoin="round"/>
<path d="M291.876 15.6981C291.876 16.5497 291.152 17.2406 290.259 17.2406C289.366 17.2406 288.642 16.5497 288.642 15.6981C288.642 14.8466 289.366 14.1556 290.259 14.1556C291.152 14.1556 291.876 14.8466 291.876 15.6981Z" stroke="#263238" stroke-width="1.18987" stroke-miterlimit="10" stroke-linecap="round" stroke-linejoin="round"/>
<path d="M238.204 74.7957C236.814 74.8118 235.693 73.7352 235.71 72.4177L236.485 26.3594C236.561 24.6884 235.971 23.2262 234.219 23.2262H233.023C231.296 23.2262 229.898 23.9814 229.94 25.6203L231.052 72.4418C231.086 73.7593 229.974 74.8359 228.593 74.8359H228.424C227.076 74.8359 225.99 75.8642 225.964 77.1496L225.653 98.4796C225.619 100.785 227.59 102.665 230.008 102.641L237.968 102.545C240.368 102.521 242.289 100.617 242.213 98.3189L241.556 77.0532C241.514 75.7758 240.41 74.7635 239.063 74.7796L238.204 74.7957Z" stroke="#263238" stroke-width="1.18987" stroke-miterlimit="10" stroke-linecap="round" stroke-linejoin="round"/>
<path d="M231.945 26.585C231.945 25.8298 232.585 25.2192 233.377 25.2192C234.169 25.2192 234.809 25.8298 234.809 26.585C234.809 27.3402 234.169 27.9508 233.377 27.9508C232.585 27.9427 231.945 27.3321 231.945 26.585Z" stroke="#263238" stroke-width="1.18987" stroke-miterlimit="10" stroke-linecap="round" stroke-linejoin="round"/>
<path d="M228.247 96.6558V84.7737" stroke="#263238" stroke-width="1.18987" stroke-miterlimit="10" stroke-linecap="round" stroke-linejoin="round"/>
<path d="M230.623 96.6558V84.7737" stroke="#263238" stroke-width="1.18987" stroke-miterlimit="10" stroke-linecap="round" stroke-linejoin="round"/>
<path d="M233.352 96.4627L233.326 84.7894" stroke="#263238" stroke-width="1.18987" stroke-miterlimit="10" stroke-linecap="round" stroke-linejoin="round"/>
<path d="M236.266 96.6153V84.7332" stroke="#263238" stroke-width="1.18987" stroke-miterlimit="10" stroke-linecap="round" stroke-linejoin="round"/>
<path d="M239.341 96.5921V84.71" stroke="#263238" stroke-width="1.18987" stroke-miterlimit="10" stroke-linecap="round" stroke-linejoin="round"/>
<path d="M288.903 27.3073C288.903 26.5521 289.543 25.9415 290.335 25.9415C291.127 25.9415 291.767 26.5521 291.767 27.3073C291.767 28.0625 291.127 28.673 290.335 28.673C289.543 28.673 288.903 28.0625 288.903 27.3073Z" stroke="#263238" stroke-width="1.18987" stroke-miterlimit="10" stroke-linecap="round" stroke-linejoin="round"/>
<path d="M290.613 77.752L293.62 26.7128C293.721 25.0337 292.315 23.6198 290.554 23.6198H289.998C288.28 23.6198 286.89 24.9694 286.924 26.6084L287.598 56.9604C287.749 63.9418 287.901 70.9232 288.069 77.9047C288.086 78.5233 287.749 79.0937 287.202 79.4311C285.155 80.6924 283.731 82.8054 282.99 85.0388C282.013 87.9872 281.836 91.4659 282.392 94.5188C283.007 97.9091 285.475 101.613 289.333 102.111C293.123 102.601 295.844 99.4114 296.838 96.2701C297.84 93.0807 298.253 89.2405 297.402 85.9868C296.998 84.4282 296.198 82.9982 295.162 81.7127C294.471 80.8531 292.963 79.9533 291.742 79.4713C291.018 79.1901 290.571 78.4992 290.613 77.752Z" stroke="#263238" stroke-width="1.18987" stroke-miterlimit="10" stroke-linecap="round" stroke-linejoin="round"/>
<path d="M284.608 93.7397V86.9189" stroke="#263238" stroke-width="1.18987" stroke-miterlimit="10" stroke-linecap="round" stroke-linejoin="round"/>
<path d="M294.825 93.7397V86.9189" stroke="#263238" stroke-width="1.18987" stroke-miterlimit="10" stroke-linecap="round" stroke-linejoin="round"/>
<path d="M287.648 95.3137V85.183" stroke="#263238" stroke-width="1.18987" stroke-miterlimit="10" stroke-linecap="round" stroke-linejoin="round"/>
<path d="M292.492 95.3137V85.183" stroke="#263238" stroke-width="1.18987" stroke-miterlimit="10" stroke-linecap="round" stroke-linejoin="round"/>
<path d="M290.015 98.6155V83.6162" stroke="#263238" stroke-width="1.18987" stroke-miterlimit="10" stroke-linecap="round" stroke-linejoin="round"/>
<path d="M260.256 27.0978C260.256 26.3426 260.896 25.7321 261.688 25.7321C262.48 25.7321 263.12 26.3426 263.12 27.0978C263.12 27.853 262.48 28.4636 261.688 28.4636C260.896 28.4636 260.256 27.853 260.256 27.0978Z" stroke="#263238" stroke-width="1.18987" stroke-miterlimit="10" stroke-linecap="round" stroke-linejoin="round"/>
<path d="M263.633 72.0713L265.874 26.1014C265.958 24.4304 264.56 23.0325 262.808 23.0325H260.694C258.933 23.0325 257.535 24.4464 257.628 26.1175L260.247 72.4087C260.281 73.0434 259.961 73.6459 259.397 73.9914C256.853 75.5098 249.861 80.4667 249.693 89.0629C249.491 99.5793 261.949 104.255 269.092 100.359C276.083 96.5505 281.12 80.8121 264.712 73.7423C264.021 73.4451 263.6 72.7783 263.633 72.0713Z" stroke="#263238" stroke-width="1.18987" stroke-miterlimit="10" stroke-linecap="round" stroke-linejoin="round"/>
<path d="M262.21 96.6465C262.21 96.2367 262.556 95.9073 262.985 95.9073C263.415 95.9073 263.76 96.2367 263.76 96.6465C263.76 97.0562 263.415 97.3856 262.985 97.3856C262.556 97.3856 262.21 97.0562 262.21 96.6465Z" stroke="#263238" stroke-width="1.18987" stroke-miterlimit="10" stroke-linecap="round" stroke-linejoin="round"/>
<path d="M258.032 95.5304C258.46 95.5304 258.807 95.1994 258.807 94.7912C258.807 94.383 258.46 94.0521 258.032 94.0521C257.604 94.0521 257.257 94.383 257.257 94.7912C257.257 95.1994 257.604 95.5304 258.032 95.5304Z" stroke="#263238" stroke-width="1.18987" stroke-miterlimit="10" stroke-linecap="round" stroke-linejoin="round"/>
<path d="M268.047 95.5304C268.475 95.5304 268.822 95.1994 268.822 94.7912C268.822 94.383 268.475 94.0521 268.047 94.0521C267.619 94.0521 267.272 94.383 267.272 94.7912C267.272 95.1994 267.619 95.5304 268.047 95.5304Z" stroke="#263238" stroke-width="1.18987" stroke-miterlimit="10" stroke-linecap="round" stroke-linejoin="round"/>
<path d="M262.21 91.8264C262.21 91.4167 262.555 91.0873 262.985 91.0873C263.414 91.0873 263.76 91.4167 263.76 91.8264C263.76 92.2361 263.414 92.5655 262.985 92.5655C262.555 92.5655 262.21 92.2361 262.21 91.8264Z" stroke="#263238" stroke-width="1.18987" stroke-miterlimit="10" stroke-linecap="round" stroke-linejoin="round"/>
<path d="M258.032 90.7102C258.46 90.7102 258.807 90.3793 258.807 89.971C258.807 89.5628 258.46 89.2319 258.032 89.2319C257.604 89.2319 257.257 89.5628 257.257 89.971C257.257 90.3793 257.604 90.7102 258.032 90.7102Z" stroke="#263238" stroke-width="1.18987" stroke-miterlimit="10" stroke-linecap="round" stroke-linejoin="round"/>
<path d="M268.047 90.7102C268.475 90.7102 268.822 90.3793 268.822 89.971C268.822 89.5628 268.475 89.2319 268.047 89.2319C267.619 89.2319 267.272 89.5628 267.272 89.971C267.272 90.3793 267.619 90.7102 268.047 90.7102Z" stroke="#263238" stroke-width="1.18987" stroke-miterlimit="10" stroke-linecap="round" stroke-linejoin="round"/>
<path d="M262.21 86.9988C262.21 86.589 262.555 86.2596 262.985 86.2596C263.414 86.2596 263.76 86.589 263.76 86.9988C263.76 87.4085 263.414 87.7379 262.985 87.7379C262.555 87.7379 262.21 87.4085 262.21 86.9988Z" stroke="#263238" stroke-width="1.18987" stroke-miterlimit="10" stroke-linecap="round" stroke-linejoin="round"/>
<path d="M257.249 85.1416C257.249 84.7319 257.594 84.4025 258.024 84.4025C258.453 84.4025 258.799 84.7319 258.799 85.1416C258.799 85.5513 258.453 85.8807 258.024 85.8807C257.594 85.8807 257.249 85.5513 257.249 85.1416Z" stroke="#263238" stroke-width="1.18987" stroke-miterlimit="10" stroke-linecap="round" stroke-linejoin="round"/>
<path d="M267.272 85.1416C267.272 84.7319 267.618 84.4025 268.047 84.4025C268.477 84.4025 268.822 84.7319 268.822 85.1416C268.822 85.5513 268.477 85.8807 268.047 85.8807C267.618 85.8807 267.272 85.5513 267.272 85.1416Z" stroke="#263238" stroke-width="1.18987" stroke-miterlimit="10" stroke-linecap="round" stroke-linejoin="round"/>
<path d="M262.21 78.8356C262.21 79.2453 262.556 79.5747 262.985 79.5747C263.415 79.5747 263.76 79.2453 263.76 78.8356C263.76 78.4258 263.415 78.0964 262.985 78.0964C262.556 78.0964 262.21 78.4258 262.21 78.8356Z" stroke="#263238" stroke-width="1.18987" stroke-miterlimit="10" stroke-linecap="round" stroke-linejoin="round"/>
<path d="M257.249 80.6909C257.249 81.1006 257.594 81.43 258.024 81.43C258.453 81.43 258.799 81.1006 258.799 80.6909C258.799 80.2812 258.453 79.9518 258.024 79.9518C257.594 79.9518 257.249 80.2812 257.249 80.6909Z" stroke="#263238" stroke-width="1.18987" stroke-miterlimit="10" stroke-linecap="round" stroke-linejoin="round"/>
<path d="M267.273 80.6909C267.273 81.1006 267.618 81.43 268.048 81.43C268.477 81.43 268.823 81.1006 268.823 80.6909C268.823 80.2812 268.477 79.9518 268.048 79.9518C267.618 79.9518 267.273 80.2812 267.273 80.6909Z" stroke="#263238" stroke-width="1.18987" stroke-miterlimit="10" stroke-linecap="round" stroke-linejoin="round"/>
</g>
<defs>
<clipPath id="clip0_1295_71">
<rect width="351" height="313" fill="white"/>
</clipPath>
</defs>
</svg>
