<svg width="532" height="343" viewBox="0 0 532 343" fill="none" xmlns="http://www.w3.org/2000/svg">
<path d="M490.421 258.994C465.441 283.096 433.483 301.966 399.362 315.647C354.253 333.733 305.372 342.74 263.85 342.743C222.176 342.743 182.711 337.06 147.617 326.008C59.1156 298.138 -1.60797 236.155 0.0324411 145.231C2.6183 1.65018 195.556 -34.0403 273.124 31.8267C356.426 102.559 390.677 33.9117 474.049 71.3695C538.272 100.223 555.907 195.808 490.421 258.994Z" fill="#F4EAC8"/>
<path d="M392.218 155.919C392.218 155.919 385.283 150.222 383.925 149.195C382.566 148.169 382.513 146.751 383.219 146.31C383.219 146.31 378.781 142.736 378.136 137.921C377.43 132.763 380.393 133.278 382.034 135.01C383.674 136.742 385.053 140.51 386.567 139.949C388.08 139.388 387.421 137.212 386.239 136.749C385.057 136.287 385.978 134.319 387.223 134.633C388.468 134.947 388.8 137.653 388.8 139.099C388.8 140.545 389.858 143.763 394.515 142.778C399.172 141.794 414.479 132.601 414.479 132.795C414.479 132.989 418.747 134.82 420.652 134.037C422.557 133.253 426.618 125.111 426.618 125.111L438.132 128.921L425.383 155.912C425.383 155.912 400.558 161.5 392.218 155.919Z" fill="url(#paint0_linear_1296_9719)"/>
<path d="M405.55 117.876L421.002 124.628C421.002 124.628 415.107 140.503 414.496 149.929L401.902 143.287C401.902 143.287 401.902 126.491 405.55 117.876Z" fill="url(#paint1_linear_1296_9719)"/>
<path d="M391.926 154.516C392.963 151.401 395.693 148.046 403.172 146.793C411.258 145.439 421.104 149.369 416.902 154.202L404.202 157.454L391.926 154.516Z" fill="url(#paint2_linear_1296_9719)"/>
<path d="M415.594 155.57H415.569C415.523 155.567 415.477 155.555 415.436 155.534C415.394 155.514 415.357 155.485 415.327 155.45C415.296 155.415 415.273 155.374 415.258 155.33C415.243 155.286 415.238 155.239 415.241 155.193C415.311 154.156 414.74 152.455 413.304 151.005C412.147 149.838 410.069 148.487 406.774 148.677C400.925 149.03 396.819 150.155 393.154 154.921C393.127 154.961 393.092 154.995 393.051 155.021C393.01 155.047 392.965 155.064 392.917 155.072C392.87 155.079 392.821 155.077 392.775 155.065C392.728 155.053 392.684 155.032 392.646 155.003C392.608 154.973 392.576 154.936 392.553 154.894C392.53 154.852 392.515 154.805 392.51 154.757C392.506 154.71 392.511 154.661 392.526 154.615C392.54 154.569 392.564 154.527 392.596 154.491C396.427 149.51 400.682 148.328 406.735 147.972C410.299 147.76 412.546 149.235 413.791 150.508C415.386 152.117 416.014 154.036 415.932 155.242C415.926 155.329 415.888 155.411 415.826 155.471C415.763 155.532 415.681 155.567 415.594 155.57Z" fill="#D33332"/>
<path d="M393.958 155.881C396.159 151.877 399.62 149.64 405.391 149.64C411.162 149.64 412.302 154.71 412.302 154.71L409.092 155.884C409.092 155.884 409.346 151.591 405.342 151.341C401.338 151.09 396.826 152.843 395.464 156.304L393.958 155.881Z" fill="url(#paint3_linear_1296_9719)"/>
<path d="M373.271 120.187L388.863 113.942C388.863 113.942 399.701 118.719 401.916 131.532C401.916 131.532 397.221 147.188 396.921 146.885C396.621 146.581 388.398 143.078 388.398 143.078C388.398 143.078 388.518 137.31 387.188 135.479C387.173 135.479 384.454 130.417 373.271 120.187Z" fill="url(#paint4_linear_1296_9719)"/>
<path d="M485.817 139.212C483.27 137.209 481.549 142.109 480.173 140.814C478.797 139.519 481.446 135.169 480.173 132.421C478.899 129.673 476.776 133.332 475.312 131.437C473.932 129.673 477.301 126.071 476.37 117.64C475.745 111.95 470.045 101.176 467.596 103.211C465.148 105.247 468.238 113.481 467.011 118.028C466.139 121.259 463.162 118.681 462.597 117.192C461.666 114.723 459.37 111.092 457.923 114.14C456.477 117.188 459.447 122.755 459.687 122.607C459.927 122.459 467.448 126.717 467.861 133.416C468.274 140.115 465.021 140.666 457.327 141.198L451.167 159.726L464.337 165.134L471.135 158.784C482.466 157.056 489.02 141.728 485.817 139.212ZM469.388 123.44C469.103 120.942 469.607 115.679 470.859 115.375C472.948 114.902 474.102 124.745 472.454 125.881C470.807 127.017 469.671 125.937 469.388 123.44V123.44ZM475.978 153.024C473.403 154.816 471.646 154.35 471.315 152.625C472.726 149.637 477.245 144.889 479.298 146.723C480.974 148.215 478.557 151.231 475.978 153.024V153.024Z" fill="url(#paint5_linear_1296_9719)"/>
<path d="M431.56 152.078C431.782 152.078 456.064 150.152 456.286 150C456.508 149.849 468.228 141.181 459.994 125.133C451.76 109.085 450.091 104.563 448.5 86.2324C448.338 84.3733 447.132 84.0946 446.483 84.5603C446.483 84.5603 447.583 78.3196 446.747 77.7164C445.911 77.1131 445.505 76.9897 444.44 79.5438C443.375 82.0979 440.168 90.0918 442.119 102.213C444.07 114.335 447.368 117.735 447.368 117.735L446.31 117.654C446.31 117.654 442.923 111.509 439.254 106.291C435.585 101.074 434.7 100.957 434.118 101C433.536 101.042 433.257 102.34 433.92 103.233C434.583 104.125 441.551 112.557 444.352 119.485C445.728 122.89 447.23 128.516 446.179 134.221C445.184 139.696 438.721 145.619 431.56 152.078Z" fill="url(#paint6_linear_1296_9719)"/>
<g opacity="0.5">
<path d="M455.563 121.651C455.511 121.651 455.458 121.64 455.411 121.617C455.363 121.595 455.321 121.562 455.288 121.521C448.779 113.407 446.402 104.587 445.551 98.6185C444.553 91.6264 445.311 86.0949 446.169 84.4016C446.211 84.3178 446.284 84.2542 446.373 84.2248C446.462 84.1954 446.559 84.2025 446.643 84.2446C446.727 84.2867 446.791 84.3603 446.82 84.4493C446.849 84.5383 446.842 84.6353 446.8 84.7191C444.99 88.2962 444.274 106.627 455.842 121.076C455.884 121.128 455.91 121.191 455.918 121.257C455.926 121.323 455.915 121.391 455.886 121.451C455.857 121.511 455.812 121.562 455.755 121.597C455.699 121.633 455.633 121.652 455.567 121.651H455.563Z" fill="#DD9127"/>
<path d="M451.93 120.54C451.87 120.54 451.811 120.525 451.758 120.496C451.706 120.467 451.662 120.425 451.63 120.374C438.2 98.7877 444.602 83.4878 446.709 78.4607C446.749 78.3812 446.818 78.32 446.901 78.2892C446.985 78.2585 447.077 78.2605 447.159 78.2949C447.241 78.3293 447.308 78.3935 447.344 78.4747C447.381 78.5558 447.386 78.6478 447.358 78.7323C445.287 83.6712 438.99 98.7207 452.226 120.007C452.259 120.061 452.278 120.122 452.279 120.185C452.281 120.248 452.266 120.31 452.235 120.366C452.205 120.421 452.16 120.467 452.105 120.498C452.051 120.53 451.989 120.547 451.926 120.547L451.93 120.54Z" fill="#DD9127"/>
<path d="M457.123 121.651C457.066 121.651 457.01 121.637 456.959 121.611C456.909 121.585 456.866 121.546 456.833 121.5C456.741 121.369 454.54 118.18 450.169 107.452C446.62 98.7455 447.245 92.2579 447.657 87.9646C447.763 86.8745 447.852 85.9326 447.862 85.1212C447.862 85.0277 447.899 84.9379 447.965 84.8718C448.032 84.8056 448.121 84.7685 448.215 84.7685C448.308 84.7685 448.398 84.8056 448.464 84.8718C448.53 84.9379 448.568 85.0277 448.568 85.1212C448.568 85.9609 448.469 86.9169 448.363 88.0246C447.957 92.2579 447.343 98.6326 450.832 107.177C455.165 117.803 457.401 121.052 457.422 121.083C457.459 121.136 457.481 121.198 457.485 121.262C457.489 121.327 457.475 121.391 457.445 121.448C457.415 121.505 457.371 121.553 457.316 121.586C457.261 121.619 457.197 121.637 457.133 121.637L457.123 121.651Z" fill="#DD9127"/>
<path d="M436.023 152.085C435.951 152.085 435.88 152.063 435.821 152.022C435.762 151.981 435.717 151.923 435.692 151.855C435.667 151.787 435.663 151.714 435.681 151.644C435.699 151.574 435.739 151.511 435.793 151.465C450.07 139.177 449.065 133.12 447.548 123.948C447.477 123.525 447.407 123.095 447.336 122.66C447.321 122.567 447.344 122.471 447.4 122.394C447.455 122.318 447.539 122.266 447.633 122.251C447.726 122.236 447.822 122.259 447.899 122.314C447.975 122.37 448.027 122.454 448.042 122.547C448.112 122.982 448.183 123.412 448.254 123.835C449.753 132.901 450.839 139.456 436.259 152.001C436.193 152.057 436.109 152.087 436.023 152.085Z" fill="#DD9127"/>
<path d="M439.533 153.376C439.466 153.376 439.399 153.357 439.343 153.321C439.286 153.284 439.241 153.232 439.213 153.171C439.184 153.11 439.174 153.042 439.184 152.975C439.193 152.908 439.221 152.845 439.265 152.794C440.027 151.895 440.764 151.03 441.477 150.212C448.673 141.862 453.016 136.806 449.612 123.859C449.594 123.771 449.611 123.68 449.658 123.604C449.706 123.527 449.781 123.472 449.868 123.449C449.954 123.426 450.047 123.437 450.126 123.48C450.205 123.523 450.264 123.594 450.293 123.679C453.792 137 449.358 142.147 442.009 150.67C441.304 151.492 440.563 152.35 439.801 153.249C439.768 153.289 439.727 153.32 439.681 153.342C439.635 153.364 439.584 153.376 439.533 153.376V153.376Z" fill="#DD9127"/>
<path d="M444.313 152.431C444.242 152.431 444.173 152.409 444.115 152.37C444.057 152.33 444.012 152.273 443.986 152.207C443.96 152.142 443.955 152.07 443.97 152.001C443.986 151.932 444.022 151.869 444.073 151.821C456.3 140.49 454.152 132.065 452.258 124.629L452.063 123.86C452.052 123.815 452.05 123.768 452.056 123.722C452.063 123.676 452.079 123.632 452.103 123.592C452.126 123.553 452.158 123.518 452.195 123.49C452.232 123.463 452.274 123.442 452.319 123.431C452.364 123.42 452.411 123.417 452.457 123.424C452.503 123.431 452.547 123.446 452.587 123.47C452.626 123.494 452.661 123.525 452.689 123.562C452.716 123.6 452.737 123.642 452.748 123.687L452.942 124.452C454.787 131.702 457.087 140.722 444.553 152.322C444.49 152.388 444.404 152.427 444.313 152.431V152.431Z" fill="#DD9127"/>
<path d="M447.802 152.431C447.726 152.431 447.652 152.407 447.592 152.362C447.531 152.317 447.486 152.254 447.464 152.181C447.442 152.109 447.443 152.031 447.469 151.96C447.494 151.889 447.541 151.828 447.604 151.785C458.995 144.18 457.792 135.028 455.221 124.717C455.202 124.627 455.219 124.534 455.268 124.457C455.316 124.38 455.393 124.325 455.481 124.303C455.57 124.281 455.664 124.294 455.743 124.34C455.822 124.385 455.88 124.46 455.905 124.547C458.54 135.131 459.768 144.515 447.996 152.375C447.938 152.412 447.871 152.431 447.802 152.431Z" fill="#DD9127"/>
<path d="M451.929 152.978C451.857 152.978 451.786 152.956 451.726 152.914C451.667 152.872 451.621 152.813 451.597 152.745C451.572 152.677 451.569 152.602 451.588 152.532C451.607 152.462 451.647 152.4 451.703 152.353C461.906 143.788 460.17 135.191 458.635 127.606L458.424 126.548C458.406 126.454 458.425 126.357 458.478 126.278C458.532 126.199 458.614 126.144 458.708 126.126C458.801 126.108 458.898 126.128 458.977 126.181C459.056 126.234 459.111 126.317 459.129 126.41L459.337 127.469C460.907 135.23 462.689 144.049 452.166 152.897C452.099 152.952 452.015 152.981 451.929 152.978V152.978Z" fill="#DD9127"/>
</g>
<path d="M399.172 159.239C409.886 150.568 424.925 149.838 438.133 150.067C451.341 150.296 467.145 148.536 467.593 135.49C467.593 135.49 473.386 150.36 455.652 156.406C437.917 162.453 435.61 166.503 435.61 166.503L399.172 159.239Z" fill="url(#paint7_linear_1296_9719)"/>
<g opacity="0.5">
<path d="M406.756 160.076C406.683 160.075 406.611 160.052 406.552 160.009C406.492 159.966 406.447 159.906 406.424 159.837C406.4 159.767 406.399 159.692 406.42 159.621C406.441 159.551 406.483 159.489 406.541 159.444C411.833 155.38 418.021 151.365 430.262 150.815C442.398 150.268 454.766 151.817 454.889 151.835C454.936 151.84 454.98 151.855 455.021 151.878C455.062 151.901 455.097 151.932 455.126 151.969C455.155 152.006 455.176 152.048 455.188 152.093C455.2 152.138 455.204 152.185 455.198 152.232C455.192 152.278 455.177 152.323 455.154 152.363C455.131 152.404 455.1 152.439 455.064 152.468C455.027 152.497 454.985 152.518 454.94 152.53C454.895 152.543 454.848 152.546 454.801 152.54C454.678 152.54 442.369 150.981 430.297 151.528C418.225 152.075 412.179 156.015 406.975 159.994C406.914 160.045 406.836 160.074 406.756 160.076Z" fill="#DD9127"/>
<path d="M410.637 160.897C410.568 160.898 410.501 160.878 410.443 160.841C410.385 160.803 410.339 160.75 410.312 160.687C410.284 160.624 410.275 160.554 410.287 160.486C410.298 160.418 410.329 160.355 410.376 160.305C417.53 152.487 436.012 152.215 449.668 154.36C449.762 154.375 449.846 154.426 449.902 154.502C449.958 154.579 449.981 154.674 449.966 154.768C449.952 154.861 449.901 154.945 449.824 155.001C449.748 155.057 449.652 155.08 449.559 155.066C436.079 152.949 417.865 153.179 410.898 160.791C410.864 160.826 410.823 160.853 410.778 160.872C410.734 160.89 410.685 160.899 410.637 160.897Z" fill="#DD9127"/>
<path d="M415.265 164.083C415.198 164.083 415.133 164.064 415.076 164.028C415.019 163.992 414.974 163.941 414.946 163.88C414.917 163.819 414.906 163.752 414.915 163.685C414.924 163.619 414.951 163.556 414.994 163.504C420.564 156.763 431.222 154.526 445.05 157.211C445.144 157.229 445.227 157.283 445.28 157.362C445.334 157.44 445.354 157.537 445.336 157.631C445.318 157.724 445.264 157.807 445.185 157.86C445.107 157.914 445.01 157.934 444.916 157.916C431.37 155.285 420.928 157.433 415.537 163.967C415.503 164.004 415.461 164.034 415.414 164.055C415.367 164.075 415.316 164.084 415.265 164.083Z" fill="#DD9127"/>
</g>
<path d="M463.455 123.062C452.575 117.365 436.823 114.853 425.337 111.068C418.504 108.821 416.038 105.402 414.048 102.859C413.381 102.005 411.963 103.042 412.14 104.771C411.302 103.914 410.513 103.012 409.776 102.068C408.365 100.269 407.053 103.402 409.36 105.949C427.062 125.5 448.01 123.454 456.674 127.613C465.339 131.772 466.813 136.711 467.258 139.918C467.702 143.125 461.966 149.277 456.078 151.097C450.19 152.918 436.495 156.47 432.16 164.584C432.16 164.584 453.986 163.124 454.357 163.092C454.663 163.064 468.736 159.165 473.237 150.865C479.749 143.237 473.985 128.583 463.455 123.062Z" fill="url(#paint8_linear_1296_9719)"/>
<g opacity="0.5">
<path d="M445.735 164.968C445.641 164.981 445.547 164.956 445.472 164.899C445.396 164.841 445.347 164.757 445.335 164.663C445.322 164.57 445.347 164.475 445.404 164.4C445.461 164.325 445.546 164.275 445.64 164.263C445.813 164.213 463.032 159.359 468.701 149.333C469.612 147.769 470.195 146.035 470.412 144.237C470.629 142.44 470.477 140.617 469.964 138.88C466.884 127.849 456.466 125.538 445.439 123.094C440.831 122.071 436.065 121.016 431.656 119.291C419.143 114.401 413.699 108.573 409.727 104.319C409.11 103.659 408.527 103.031 407.963 102.449C407.898 102.382 407.861 102.292 407.862 102.198C407.863 102.105 407.901 102.015 407.968 101.95C408.035 101.884 408.125 101.848 408.219 101.849C408.313 101.85 408.402 101.888 408.468 101.955C409.046 102.544 409.632 103.172 410.253 103.839C414.179 108.044 419.559 113.805 431.924 118.638C436.284 120.342 441.022 121.393 445.604 122.409C456.844 124.9 467.477 127.256 470.652 138.697C471.19 140.523 471.35 142.439 471.121 144.329C470.893 146.218 470.28 148.041 469.322 149.686C463.508 159.966 446.553 164.75 445.834 164.947C445.802 164.959 445.769 164.966 445.735 164.968Z" fill="#DD9127"/>
<path d="M438.132 166.468C438.067 166.468 438.003 166.45 437.948 166.416C437.892 166.382 437.847 166.333 437.817 166.275C437.788 166.217 437.775 166.152 437.78 166.087C437.785 166.022 437.808 165.96 437.847 165.907C442.147 159.966 450.31 156.322 455.715 153.913C457.345 153.186 458.752 152.558 459.779 151.997C464.312 149.527 468.471 144.73 466.887 140.041C466.857 139.952 466.864 139.855 466.906 139.771C466.947 139.687 467.021 139.623 467.11 139.593C467.199 139.563 467.296 139.57 467.38 139.612C467.464 139.653 467.528 139.727 467.558 139.816C469.279 144.917 465.06 149.923 460.118 152.618C459.059 153.193 457.648 153.824 456.001 154.558C450.667 156.939 442.595 160.534 438.418 166.323C438.385 166.368 438.342 166.405 438.293 166.43C438.243 166.455 438.188 166.468 438.132 166.468Z" fill="#DD9127"/>
<path d="M473.206 151.224H473.139C473.047 151.206 472.966 151.153 472.914 151.075C472.862 150.998 472.842 150.903 472.86 150.812C474.31 143.266 473.34 136.969 469.978 132.114C463.628 122.907 450.176 120.557 442.144 119.15C441.025 118.956 439.967 118.769 439.078 118.592C431.089 117.048 423.428 114.126 416.44 109.956C416.364 109.908 416.309 109.831 416.287 109.743C416.265 109.654 416.279 109.561 416.324 109.482C416.37 109.403 416.444 109.345 416.531 109.32C416.619 109.294 416.713 109.304 416.793 109.346C423.715 113.475 431.302 116.369 439.216 117.897C440.098 118.074 441.1 118.25 442.264 118.455C450.406 119.866 464.037 122.261 470.556 131.712C474.028 136.743 475.037 143.22 473.548 150.96C473.528 151.036 473.484 151.103 473.422 151.151C473.36 151.198 473.284 151.224 473.206 151.224Z" fill="#DD9127"/>
</g>
<path d="M427.496 138.397C433.656 142.278 441.999 138.542 444.038 130.414C446.077 122.286 445.414 112.616 433.832 118.183C421.376 124.173 422.885 135.48 427.496 138.397Z" fill="url(#paint9_linear_1296_9719)"/>
<path d="M433.832 135.014C436.411 135.014 438.503 132.923 438.503 130.343C438.503 127.764 436.411 125.672 433.832 125.672C431.252 125.672 429.161 127.764 429.161 130.343C429.161 132.923 431.252 135.014 433.832 135.014Z" fill="url(#paint10_linear_1296_9719)"/>
<path d="M436.866 148.585C436.566 148.97 436.227 149.482 435.832 150.028C432.379 150.004 428.826 150.071 425.281 150.349C423.379 150.498 421.485 150.702 419.605 150.991C415.435 148.127 416.521 145.273 418.063 144.398C419.735 143.449 418.62 140.941 419.008 139.322C419.396 137.702 421.404 136.401 423.594 136.753C426.127 137.166 426.494 134.559 429.175 134.245C431.207 134.009 434.545 135.011 435.13 138.066C435.73 141.184 438.062 139.9 438.64 142.02C439.219 144.14 438.037 147.076 436.866 148.585Z" fill="url(#paint11_linear_1296_9719)"/>
<path d="M425.281 150.879C425.151 150.881 425.026 150.836 424.928 150.752C422.183 148.384 421.248 145.65 422.367 143.255C423.485 140.86 426.392 139.551 429.45 140.045C430.15 140.171 430.807 140.471 431.361 140.916C431.916 141.36 432.35 141.937 432.625 142.592C432.967 143.315 433.127 144.11 433.094 144.909C433.06 145.708 432.833 146.486 432.431 147.178C432.017 147.823 431.423 148.334 430.722 148.647C430.022 148.961 429.245 149.063 428.487 148.942C427.857 148.878 427.26 148.629 426.77 148.227C426.281 147.824 425.921 147.287 425.736 146.681C425.553 146.107 425.539 145.493 425.696 144.912C425.852 144.331 426.172 143.808 426.618 143.403C427.355 142.74 428.353 142.49 429.087 142.782C429.448 142.918 429.75 143.176 429.939 143.511C430.129 143.846 430.194 144.238 430.124 144.617C430.001 145.322 429.373 146.12 428.008 146.144C427.868 146.143 427.734 146.089 427.634 145.991C427.534 145.894 427.476 145.762 427.471 145.622C427.47 145.553 427.483 145.484 427.509 145.419C427.535 145.355 427.573 145.296 427.621 145.246C427.67 145.196 427.728 145.156 427.791 145.129C427.855 145.101 427.924 145.087 427.993 145.086C428.699 145.086 429.034 144.733 429.087 144.43C429.112 144.293 429.087 144.151 429.018 144.03C428.948 143.909 428.837 143.817 428.706 143.77C428.458 143.716 428.2 143.727 427.958 143.801C427.715 143.875 427.495 144.01 427.32 144.193C427.023 144.469 426.811 144.824 426.71 145.216C426.609 145.608 426.622 146.021 426.748 146.405C426.877 146.814 427.125 147.174 427.46 147.441C427.795 147.707 428.202 147.868 428.628 147.901C429.183 147.99 429.751 147.917 430.265 147.689C430.778 147.462 431.214 147.091 431.521 146.621C431.829 146.074 432.001 145.462 432.024 144.836C432.047 144.209 431.919 143.586 431.652 143.019C431.446 142.521 431.12 142.082 430.701 141.742C430.283 141.403 429.786 141.173 429.256 141.075C426.663 140.655 424.215 141.731 423.302 143.689C422.388 145.647 423.234 147.901 425.595 149.937C425.677 150.007 425.736 150.102 425.763 150.208C425.79 150.313 425.784 150.424 425.746 150.526C425.707 150.628 425.638 150.716 425.548 150.777C425.458 150.838 425.351 150.87 425.242 150.868L425.281 150.879Z" fill="#ECB88B"/>
<path d="M396.508 216.59L388.123 239.387C388.123 239.387 413.23 245.899 412.549 233.852C411.815 220.824 396.508 216.59 396.508 216.59Z" fill="url(#paint12_linear_1296_9719)"/>
<path d="M379.712 191.173C380.28 186.174 386.821 176.674 399.761 174.476L439.625 188.418C439.625 188.418 421.576 203.075 404.294 198.683C387.011 194.291 379.712 191.173 379.712 191.173Z" fill="#F9CBA2"/>
<path d="M388.162 189.783C388.162 189.783 392.889 186.417 398.618 186.368C404.347 186.318 407.688 183.898 407.688 183.898L436.03 187.656C436.03 187.656 430.368 198.814 416.274 199.519C402.181 200.225 388.162 189.783 388.162 189.783Z" fill="#E5AD83"/>
<path d="M471.121 158.784C470.484 161.009 469.726 163.197 468.852 165.339C468.105 167.177 467.261 168.974 466.323 170.722C458.594 185.105 444.804 194.88 423.676 192.746C402.65 190.629 390.028 175.675 385.636 161.652C385.099 159.955 384.679 158.224 384.376 156.47C383.946 154.071 383.795 151.63 383.925 149.196C400.805 159.684 456.752 165.177 471.121 158.784Z" fill="url(#paint13_linear_1296_9719)"/>
<path d="M452.621 191.458C447.587 195.536 436.245 198.249 436.245 198.249C424.381 206.159 405.468 204.384 402.54 204.599C402.325 204.599 402.188 204.638 402.163 204.68C402.025 204.853 400.861 208.184 399.274 212.847C397.753 217.299 395.845 222.968 394.074 228.267C391.925 234.684 389.967 240.558 389.135 243.084L388.705 244.378C385.077 242.083 381.757 239.334 378.827 236.198C372.805 229.77 366.91 219.896 370.551 207.831L370.692 207.598C371.75 205.834 378.492 194.499 379.723 191.187C381.056 187.592 397.852 185.112 410.122 194.27C410.827 194.785 414.799 192.919 417.502 190.153C420.204 187.387 422.532 182.159 426.184 181.789C430.417 181.365 430.173 186.999 422.903 194.912C422.903 194.912 429.74 193.78 435.052 188.562C441.699 182.043 446.429 184.583 443.65 189.79C452.956 183.073 458.375 186.791 452.621 191.458Z" fill="#F9CBA2"/>
<path d="M422.885 195.427C422.782 195.427 422.682 195.397 422.596 195.341C422.509 195.284 422.442 195.204 422.4 195.11C422.359 195.015 422.346 194.911 422.364 194.809C422.381 194.708 422.427 194.614 422.497 194.538C427.602 188.982 429.034 184.787 428.188 183.098C427.874 182.47 427.21 182.202 426.219 182.3C423.93 182.533 422.113 185.01 420.356 187.402C419.596 188.492 418.763 189.529 417.862 190.506C415.392 193.028 410.955 195.551 409.787 194.676C401.969 188.841 393.129 188.389 389.679 188.463C389.609 188.466 389.539 188.455 389.474 188.43C389.408 188.405 389.348 188.368 389.298 188.319C389.248 188.271 389.208 188.213 389.18 188.148C389.153 188.084 389.139 188.015 389.139 187.945C389.137 187.875 389.15 187.806 389.175 187.741C389.2 187.677 389.238 187.618 389.286 187.567C389.334 187.517 389.392 187.477 389.456 187.449C389.519 187.421 389.588 187.406 389.657 187.405C393.185 187.324 402.308 187.797 410.383 193.808C411.06 193.956 414.539 192.397 417.086 189.765C417.951 188.823 418.751 187.823 419.481 186.774C421.376 184.191 423.333 181.524 426.092 181.246C427.524 181.101 428.597 181.598 429.112 182.621C430.262 184.918 428.456 189.197 424.374 193.988C426.674 193.332 431.042 191.705 434.644 188.174C439.081 183.821 442.405 183.588 443.897 184.699C445.23 185.698 445.308 187.74 444.077 190.03C444.011 190.154 443.898 190.246 443.764 190.287C443.63 190.328 443.485 190.314 443.361 190.248C443.237 190.182 443.144 190.07 443.103 189.936C443.062 189.801 443.076 189.656 443.142 189.532C444.102 187.737 444.144 186.213 443.262 185.549C442.052 184.643 439.071 185.317 435.384 188.933C430.015 194.2 423.238 195.371 422.949 195.42L422.885 195.427Z" fill="#C98348"/>
<path d="M402.541 204.596C402.326 204.596 402.188 204.635 402.163 204.677C402.026 204.85 400.862 208.18 399.274 212.844C389.53 209.337 389.689 200.408 389.689 200.408C393.316 203.411 402.167 204.547 402.541 204.596Z" fill="#E5AD83"/>
<path d="M394.074 228.264C391.925 234.681 389.968 240.554 389.135 243.08L378.823 236.194C372.801 229.767 366.907 219.892 370.547 207.827L370.688 207.594C372.833 213.422 379.606 227.914 394.074 228.264Z" fill="#E5AD83"/>
<path d="M26.0462 130.583C26.2493 130.824 26.4988 131.021 26.7798 131.163C27.0608 131.305 27.3676 131.389 27.6817 131.409C27.9959 131.43 28.311 131.387 28.6082 131.284C28.9055 131.18 29.1787 131.017 29.4117 130.805L104.014 62.8499C104.174 62.7039 104.271 62.5016 104.286 62.2852C104.3 62.0689 104.231 61.8553 104.091 61.6893C104.02 61.6043 103.932 61.5343 103.834 61.4833C103.735 61.4322 103.628 61.4012 103.517 61.392C103.407 61.3829 103.295 61.3957 103.19 61.4297C103.084 61.4638 102.987 61.5185 102.902 61.5905L26.3143 127.295C25.8451 127.697 25.5536 128.268 25.5034 128.884C25.4531 129.5 25.6483 130.111 26.0462 130.583V130.583Z" fill="url(#paint14_linear_1296_9719)"/>
<path d="M32.5374 136.256C32.7342 136.502 32.9786 136.707 33.2561 136.856C33.5336 137.006 33.8384 137.098 34.1524 137.127C34.4663 137.156 34.7828 137.121 35.083 137.025C35.3832 136.929 35.6609 136.773 35.8994 136.567L112.251 70.5972C112.415 70.4557 112.518 70.2563 112.538 70.0407C112.559 69.825 112.495 69.6099 112.36 69.4401V69.4401C112.291 69.3528 112.206 69.2801 112.108 69.2262C112.011 69.1723 111.904 69.1383 111.793 69.1261C111.683 69.114 111.571 69.1239 111.464 69.1554C111.357 69.1869 111.258 69.2393 111.172 69.3096L32.8902 132.986C32.4136 133.375 32.1093 133.937 32.0433 134.549C31.9773 135.161 32.1548 135.774 32.5374 136.256V136.256Z" fill="url(#paint15_linear_1296_9719)"/>
<path d="M53.2947 186.971C57.842 181.055 69.9317 173.075 84.2756 166.157L97.0708 166.133C97.0708 166.133 102.412 176.635 85.6479 188.322C68.8839 200.01 44.7081 196.838 53.2947 186.971Z" fill="url(#paint16_linear_1296_9719)"/>
<path d="M92.5625 182.237C85.9832 188.873 76.0137 193.258 76.0137 193.258L75.6609 191.878C75.0294 189.409 73.6148 183.909 72.0238 177.817C69.1663 166.88 65.7302 154.064 65.1693 153.401C55.8172 142.352 43.6287 137.173 42.0165 134.57C41.3639 133.511 40.1504 113.343 40.2527 112.412C40.4643 110.076 45.9818 101.373 48.1055 98.4452C50.2292 95.5171 54.3003 98.4028 53.6653 100.467C53.0303 102.53 50.5185 108.711 50.4409 108.905C54.6954 105.024 61.0771 100.664 63.356 100.474C65.9066 100.262 66.3935 104.425 64.4567 106.323C62.8833 107.868 56.364 114.084 56.2511 114.835C56.1382 115.587 55.0869 127.137 55.0869 127.137C57.3624 120.705 62.4635 113.202 63.9452 111.47C65.1164 110.101 69.9741 106.852 73.4137 105.758C77.2449 104.541 78.7759 107.847 77.3648 109.226C77.3648 109.226 79.8978 109.505 79.7637 111.755C79.6297 114.006 76.3735 117.601 75.7562 118.659C75.1388 119.718 73.0539 128.047 73.0539 128.047C86.3007 136.312 87.6553 138.944 89.2499 142.511C90.8445 146.077 90.3435 154.064 90.3435 154.064C90.3435 154.064 95.3282 162.64 96.7147 165.353C96.8632 165.6 96.9817 165.864 97.0674 166.14C99.9637 172.112 97.0498 177.704 92.5625 182.237Z" fill="#F9CBA2"/>
<path d="M55.0868 127.648C55.0493 127.652 55.0114 127.652 54.9739 127.648C54.8482 127.62 54.737 127.548 54.661 127.444C54.585 127.34 54.5495 127.212 54.5611 127.084C54.6035 126.611 55.5948 115.534 55.7112 114.768C55.7923 114.221 56.953 112.86 63.0772 106.923L64.0685 105.959C64.5571 105.426 64.887 104.767 65.021 104.057C65.155 103.346 65.0878 102.612 64.827 101.938C64.7212 101.647 64.5226 101.399 64.2619 101.232C64.0012 101.065 63.6927 100.988 63.3841 101.014C61.405 101.179 55.2702 105.212 50.7829 109.307C50.6772 109.387 50.5456 109.424 50.4141 109.411C50.2825 109.398 50.1605 109.337 50.072 109.238C49.9836 109.14 49.9351 109.012 49.936 108.88C49.937 108.748 49.9874 108.621 50.0773 108.524C54.3424 104.644 60.8229 100.163 63.3065 99.9552C63.8328 99.9065 64.3606 100.03 64.8105 100.308C65.2603 100.585 65.6078 101.001 65.8006 101.493C66.1543 102.364 66.2496 103.318 66.0751 104.242C65.9005 105.165 65.4635 106.019 64.8164 106.7L63.8216 107.67C61.9906 109.434 57.1541 114.133 56.766 114.952C56.6849 115.566 56.2862 119.891 55.944 123.669C58.4664 118.169 62.2023 112.694 63.557 111.11C64.8199 109.635 69.7764 106.347 73.2654 105.236C75.7348 104.453 77.34 105.381 78.0173 106.51C78.236 106.858 78.3698 107.253 78.4078 107.662C78.4458 108.071 78.3869 108.484 78.236 108.866C79.2485 109.219 80.4056 110.073 80.3033 111.766C80.194 113.604 78.3207 116.081 77.0789 117.721C76.6944 118.229 76.3734 118.666 76.2252 118.906C76.1916 118.969 76.1458 119.024 76.0904 119.069C76.035 119.113 75.9712 119.146 75.9027 119.166C75.8343 119.185 75.7627 119.19 75.6922 119.182C75.6216 119.173 75.5536 119.15 75.4922 119.114C75.4308 119.078 75.3772 119.03 75.3347 118.973C75.2921 118.916 75.2615 118.851 75.2446 118.782C75.2278 118.713 75.225 118.641 75.2365 118.571C75.248 118.501 75.2735 118.434 75.3115 118.374C75.4844 118.077 75.816 117.636 76.2358 117.083C77.3294 115.64 79.1568 113.223 79.245 111.706C79.3473 109.978 77.3999 109.745 77.3153 109.734C77.216 109.723 77.1221 109.683 77.0442 109.621C76.9664 109.558 76.9078 109.475 76.8753 109.38C76.8428 109.286 76.8378 109.184 76.8607 109.087C76.8836 108.99 76.9336 108.901 77.0048 108.831C77.2155 108.59 77.34 108.286 77.3585 107.967C77.377 107.647 77.2886 107.331 77.1072 107.067C76.638 106.284 75.4632 105.656 73.5794 106.259C70.3021 107.318 65.5114 110.457 64.3542 111.812C62.8161 113.611 57.7891 121.101 55.5913 127.313C55.5516 127.414 55.4819 127.5 55.3917 127.56C55.3015 127.62 55.1951 127.651 55.0868 127.648V127.648Z" fill="#C98348"/>
<path d="M42.0271 135.106C41.9346 135.105 41.8437 135.082 41.7629 135.036C41.682 134.991 41.614 134.927 41.565 134.848C41.4274 134.629 41.0676 134.047 40.3197 123.482C39.9669 118.412 39.6565 112.898 39.7059 112.362C39.7185 112.222 39.7864 112.092 39.8945 112.002C40.0027 111.912 40.1423 111.868 40.2827 111.881C40.423 111.893 40.5526 111.961 40.6429 112.069C40.7332 112.177 40.7768 112.317 40.7642 112.457C40.6795 113.516 41.8966 133.028 42.4787 134.308C42.5477 134.426 42.5679 134.565 42.5349 134.697C42.5019 134.829 42.4184 134.943 42.3023 135.014C42.2214 135.07 42.1258 135.102 42.0271 135.106V135.106Z" fill="#C98348"/>
<path d="M92.5626 182.237L75.6611 191.878C75.0296 189.409 73.615 183.909 72.0239 177.817C79.6651 176.938 90.1073 173.583 96.7183 165.335C96.8669 165.583 96.9853 165.847 97.0711 166.122C99.9639 172.112 97.05 177.704 92.5626 182.237Z" fill="#E5AD83"/>
<path d="M225.524 167.085L284.653 167.875C284.653 167.875 306.821 217.853 307.026 253.523C307.231 289.192 306.014 325.468 306.014 325.468L245.216 326.879C245.216 326.879 233.398 214.206 225.524 167.085Z" fill="url(#paint17_linear_1296_9719)"/>
<path d="M284.515 115.1L283.958 114.041C283.87 113.876 283.719 113.753 283.54 113.699C283.361 113.644 283.167 113.664 283.002 113.752C282.837 113.841 282.714 113.991 282.659 114.17C282.605 114.349 282.624 114.543 282.713 114.708L283.27 115.766C292.114 132.294 299.099 145.35 295.162 154.755C292.837 160.319 286.618 164.524 276.158 167.614C276.069 167.64 275.986 167.684 275.914 167.742C275.842 167.8 275.782 167.872 275.738 167.953C275.693 168.035 275.665 168.124 275.655 168.216C275.646 168.309 275.654 168.402 275.68 168.491C275.706 168.58 275.75 168.663 275.808 168.735C275.866 168.807 275.938 168.867 276.019 168.911C276.101 168.956 276.19 168.984 276.282 168.994C276.375 169.003 276.468 168.995 276.557 168.969C287.45 165.751 293.963 161.282 296.46 155.302C300.658 145.276 293.532 131.959 284.515 115.1Z" fill="url(#paint18_linear_1296_9719)"/>
<path d="M278.638 67.4995C278.638 67.4995 282.113 71.8775 283.789 79.5998L287.264 79.1482C287.264 79.1482 285.525 64.6032 269.565 53.0815C253.605 41.5598 223.065 48.7988 214.472 70.9109C210.662 80.7181 210.468 90.4971 208.827 99.567C201.362 116.994 184.817 123.348 170.304 126.879C168.445 127.331 166.639 127.754 164.892 128.163C149.483 131.776 138.335 134.383 128.874 147.598C128.817 147.673 128.776 147.758 128.753 147.85C128.73 147.941 128.726 148.036 128.74 148.129C128.754 148.222 128.787 148.311 128.836 148.391C128.885 148.471 128.95 148.54 129.026 148.595C129.103 148.65 129.189 148.689 129.281 148.71C129.373 148.731 129.468 148.733 129.56 148.717C129.653 148.7 129.741 148.666 129.82 148.615C129.899 148.564 129.967 148.497 130.02 148.42C139.175 135.624 150.097 133.063 165.213 129.525C166.977 129.116 168.773 128.692 170.639 128.237C184.013 124.981 199.069 119.382 207.54 105.236C204.555 115.742 197.916 125.009 178.813 131.846C163.171 137.441 138.723 141.724 133.305 159.098L136.885 160.583C136.885 160.583 142.65 149.146 165.524 146.003C165.524 146.003 147.363 151.154 142.646 163.289C142.646 163.289 149.631 167.918 152.337 174.377C152.337 174.377 165.87 168.002 169.711 162.065C169.711 162.065 166.392 170.973 154.866 177.693L166.141 189.578L237.755 172.814C237.755 172.814 257.962 154.025 234.365 107.642C234.365 107.642 253.732 88.2393 241.773 65.5451C241.773 65.5451 250.882 79.3034 261.603 80.1572L254.297 65.0689C254.297 65.0689 261.412 72.4772 265.303 80.4394C265.303 80.4394 276.074 81.2014 281.609 79.5927C281.598 79.5998 280.695 72.068 278.638 67.4995Z" fill="url(#paint19_linear_1296_9719)"/>
<path d="M280.222 105.568C290.919 131.109 305.89 160.813 265.508 168.292L259.902 139.41L280.222 105.568Z" fill="url(#paint20_linear_1296_9719)"/>
<path d="M284.653 167.876L284.152 179.701C284.152 179.701 278.811 181.609 266.584 190.686C250.744 190.143 248.31 184.572 224.854 181.577L225.122 175.781L225.524 167.096C237.723 162.549 240.387 149.305 232.463 121.069C232.463 121.069 220.79 121.937 219.968 112.676C218.934 101.035 227.26 101.677 234.351 107.656C234.351 107.656 253.711 88.2537 241.759 65.5701C242.038 65.9864 251.026 79.3284 261.581 80.1716L254.279 65.0903C254.498 65.3161 261.454 72.608 265.282 80.4573C265.282 80.4573 274.102 81.0817 279.873 80.0093C284.329 103.808 292.181 139.629 267.074 144.324C267.074 144.324 267.318 149.383 267.804 154.907C268.157 158.866 268.626 163.057 269.216 165.769L284.653 167.876Z" fill="#F9CBA2"/>
<path d="M256.448 324.103H189.177C196.325 298.675 191.294 278.136 187.449 258.133C183.603 238.131 181.272 232.381 181.272 232.381C175.49 238.025 160.165 252.842 146.781 264.984C146.297 265.422 145.81 265.849 145.327 266.258C126.492 282.242 107.28 277.335 94.4531 264.847C88.6746 259.202 80.6948 248.249 72.1611 234.219C71.1498 232.556 70.1326 230.852 69.1096 229.107C67.9501 227.122 66.7848 225.088 65.6136 223.004C62.7208 217.86 59.8174 212.42 56.9705 206.825C55.1808 203.298 53.4169 199.71 51.6789 196.062C48.9201 190.238 53.2946 186.961 53.2946 186.961C50.0667 192.838 56.9776 197.329 78.5217 185.923C99.4872 174.825 97.0672 166.111 97.0672 166.111L102.712 177.915L110.37 193.903L113.048 199.456L115.517 204.589L121.8 217.698C138.811 202.278 141.016 197.008 158.655 180.265C177.091 162.774 186.923 162.679 198.741 164.288C210.559 165.896 215.099 167.692 225.513 167.085C225.513 167.085 244.69 229.781 252.942 268.23C258.184 292.589 256.448 324.103 256.448 324.103Z" fill="url(#paint21_linear_1296_9719)"/>
<path d="M222.762 324.103H189.177C196.325 298.674 191.294 278.136 187.449 258.133C183.603 238.131 181.271 232.38 181.271 232.38C181.271 232.38 194.363 212.156 208.001 238.967C218.19 259.005 223.728 300.191 222.762 324.103Z" fill="url(#paint22_linear_1296_9719)"/>
<path d="M145.324 266.268C126.489 282.253 107.277 277.345 94.4497 264.857C88.6712 259.213 80.6914 248.259 72.1577 234.229C71.1464 232.566 70.1292 230.862 69.1062 229.117C67.9467 227.132 66.7814 225.098 65.6101 223.014C62.7174 217.871 59.814 212.431 56.9671 206.836C55.1773 203.308 53.4135 199.72 51.6754 196.073C48.9167 190.248 53.2912 186.971 53.2912 186.971C50.0633 192.848 56.9742 197.339 78.5183 185.934C99.4838 174.835 97.0638 166.122 97.0638 166.122L102.708 177.926L110.367 193.914L113.048 199.456L115.518 204.589L121.801 217.698C121.801 217.698 138.991 247.956 145.324 266.268Z" fill="url(#paint23_linear_1296_9719)"/>
<path d="M404.788 253.007L404.139 254.112C401.624 258.426 398.664 263.771 395.108 269.913C394.306 271.295 393.476 272.718 392.617 274.181C391.441 276.164 390.208 278.217 388.917 280.341C383.565 289.104 377.144 298.95 369.348 309.402C361.763 319.573 336.72 322.381 322.619 305.003C321.547 303.662 320.569 302.248 319.695 300.77C314.251 291.707 311.44 279.988 311.44 279.988C311.44 279.988 310.522 311.78 313.069 325.122L301.075 323.545C301.075 323.545 300.592 300.745 300.472 286.19C300.352 271.634 302.169 257.202 295.741 237.919C289.313 218.636 274.677 166.485 274.677 166.485C286.477 166.425 307.654 167.191 319.666 179.478C330.158 190.213 344.886 237.549 348.446 249.356C348.799 250.531 349.042 251.353 349.152 251.752L349.233 252.03C349.957 250.683 350.676 249.327 351.388 247.963C352.35 246.131 353.305 244.284 354.253 242.424C356.899 237.25 359.495 231.965 362.042 226.57C364.935 220.456 367.769 214.204 370.544 207.817C370.488 208.169 369.246 216.424 375.398 224.478C378.767 228.885 384.701 233.855 391.224 236.787C396.889 239.334 402.999 240.339 408.252 238.099C414.123 235.598 411.593 222.961 397.606 217.758C397.764 217.285 397.923 216.816 398.075 216.347C404.142 218.284 413.244 224.528 414.126 232.095C414.772 237.718 410.168 243.906 404.788 253.007Z" fill="url(#paint24_linear_1296_9719)"/>
<path d="M404.788 253.008L404.139 254.112C401.623 258.426 398.664 263.771 395.108 269.913C394.306 271.296 393.475 272.718 392.617 274.181C391.441 276.164 390.207 278.217 388.916 280.341C383.565 289.104 377.144 298.95 369.348 309.403C361.763 319.573 336.719 322.381 322.619 305.003C321.546 303.662 320.569 302.248 319.694 300.77C326.584 290.836 340.452 270.188 347.719 254.856C348.203 253.835 348.68 252.802 349.148 251.755L349.229 252.034C349.953 250.686 350.672 249.33 351.384 247.966C352.346 246.134 353.301 244.288 354.249 242.428C356.895 237.254 359.491 231.969 362.038 226.574C364.931 220.459 367.765 214.208 370.54 207.82C370.484 208.173 369.242 216.428 375.394 224.482C378.763 228.888 384.697 233.859 391.22 236.79C396.886 239.337 402.996 240.343 408.248 238.103C414.119 235.602 411.589 222.965 397.602 217.762C397.76 217.289 397.919 216.82 398.071 216.35C404.139 218.287 413.24 224.531 414.122 232.098C414.771 237.718 410.168 243.906 404.788 253.008Z" fill="url(#paint25_linear_1296_9719)"/>
<path d="M399.362 315.647C354.252 333.734 305.372 342.74 263.85 342.744C222.176 342.744 182.711 337.06 147.617 326.008L170.078 315.647H337.806C345.652 318.345 353.917 318 360.306 315.647H399.362Z" fill="url(#paint26_linear_1296_9719)"/>
<path opacity="0.1" d="M399.362 315.647C354.252 333.734 305.372 342.74 263.85 342.744C222.176 342.744 182.711 337.06 147.617 326.008L170.078 315.647H337.806C345.652 318.345 353.917 318 360.306 315.647H399.362Z" fill="#52BEB8"/>
<path d="M235.416 113.618C235.313 113.618 235.212 113.588 235.126 113.532C235.04 113.476 234.972 113.395 234.931 113.301C234.89 113.206 234.877 113.102 234.894 113.001C234.911 112.899 234.958 112.805 235.028 112.729C246.987 99.8247 248.081 87.7845 246.874 79.9528C245.572 71.4544 241.385 65.9264 241.343 65.8699C241.257 65.7586 241.219 65.6178 241.237 65.4785C241.256 65.3393 241.328 65.2129 241.44 65.1273C241.551 65.0417 241.692 65.0038 241.831 65.022C241.97 65.0402 242.097 65.113 242.182 65.2244C242.362 65.4572 246.56 70.9887 247.915 79.7411C249.16 87.8127 248.074 100.202 235.808 113.445C235.758 113.5 235.697 113.543 235.63 113.573C235.563 113.603 235.49 113.618 235.416 113.618Z" fill="#654B1E"/>
<path d="M245.191 87.026C245.034 87.0259 244.881 86.9731 244.757 86.8758C244.633 86.7786 244.545 86.6425 244.507 86.4895C244.469 86.3364 244.484 86.1751 244.548 86.0313C244.613 85.8875 244.724 85.7695 244.863 85.6961C249.591 83.2019 254.325 82.7257 258.555 84.3167C258.645 84.3467 258.728 84.3946 258.799 84.4575C258.87 84.5204 258.928 84.597 258.969 84.6828C259.01 84.7685 259.033 84.8617 259.037 84.9565C259.041 85.0514 259.025 85.1461 258.992 85.235C258.958 85.3239 258.907 85.4051 258.842 85.4737C258.776 85.5423 258.697 85.597 258.61 85.6345C258.523 85.6719 258.429 85.6914 258.334 85.6917C258.239 85.6919 258.145 85.673 258.057 85.6361C253.207 83.8122 248.56 85.3398 245.52 86.9449C245.418 86.9981 245.306 87.026 245.191 87.026Z" fill="#654B1E"/>
<path d="M268.584 85.4171C268.443 85.4173 268.306 85.3753 268.189 85.2967C268.073 85.2181 267.982 85.1064 267.929 84.9759C267.877 84.8454 267.864 84.7022 267.893 84.5646C267.923 84.4269 267.993 84.3012 268.094 84.2036C271.424 80.9862 277.093 81.0568 279.143 82.6725C279.29 82.7885 279.385 82.9581 279.406 83.1441C279.428 83.33 279.375 83.5169 279.259 83.6638C279.143 83.8107 278.974 83.9055 278.788 83.9273C278.602 83.9492 278.415 83.8962 278.268 83.7802C276.815 82.6372 271.918 82.4538 269.071 85.216C268.941 85.3434 268.766 85.4155 268.584 85.4171Z" fill="#654B1E"/>
<path d="M234.079 113.618C233.964 113.618 233.853 113.581 233.761 113.512C233.698 113.463 227.411 108.764 222.91 109.737C222.776 109.76 222.638 109.73 222.525 109.653C222.412 109.577 222.333 109.46 222.305 109.327C222.276 109.193 222.3 109.054 222.371 108.938C222.443 108.822 222.556 108.738 222.688 108.704C227.662 107.645 234.128 112.461 234.4 112.669C234.489 112.736 234.555 112.829 234.588 112.935C234.621 113.042 234.619 113.156 234.584 113.261C234.548 113.367 234.48 113.458 234.39 113.523C234.299 113.588 234.19 113.622 234.079 113.621V113.618Z" fill="#C98348"/>
<path d="M229.662 117.107C227.193 117.107 225.782 115.696 225.295 114.232C224.678 112.422 225.32 110.045 227.457 109.202C227.587 109.154 227.73 109.159 227.856 109.216C227.982 109.273 228.08 109.376 228.131 109.505C228.182 109.633 228.18 109.776 228.127 109.903C228.073 110.03 227.973 110.132 227.845 110.186C226.293 110.796 225.842 112.549 226.297 113.89C226.805 115.386 228.477 116.656 231.641 115.738C231.709 115.716 231.781 115.707 231.852 115.713C231.923 115.718 231.992 115.738 232.056 115.772C232.119 115.805 232.175 115.85 232.22 115.906C232.265 115.961 232.298 116.025 232.318 116.094C232.338 116.162 232.344 116.234 232.335 116.305C232.326 116.376 232.303 116.444 232.267 116.506C232.231 116.568 232.183 116.622 232.126 116.664C232.069 116.707 232.004 116.738 231.934 116.754C231.197 116.978 230.432 117.097 229.662 117.107V117.107Z" fill="#C98348"/>
<path d="M252.514 102.984C253.528 102.907 254.257 101.619 254.142 100.108C254.027 98.5963 253.112 97.4336 252.098 97.5107C251.084 97.5879 250.355 98.8757 250.47 100.387C250.585 101.899 251.5 103.061 252.514 102.984Z" fill="#654B1E"/>
<path d="M251.789 98.9918C251.719 98.9967 251.649 98.9878 251.583 98.9657C251.517 98.9436 251.456 98.9087 251.404 98.863C251.297 98.7707 251.232 98.64 251.222 98.4997C251.213 98.3593 251.259 98.2208 251.351 98.1147C251.444 98.0085 251.574 97.9433 251.715 97.9335C252.773 97.7888 253.859 96.7693 253.725 95.6722C253.708 95.5318 253.747 95.3903 253.834 95.2789C253.921 95.1674 254.049 95.0951 254.189 95.0777C254.33 95.0604 254.471 95.0996 254.583 95.1866C254.694 95.2736 254.766 95.4013 254.784 95.5416C255.002 97.3055 253.426 98.766 251.87 98.9848L251.789 98.9918Z" fill="#654B1E"/>
<path d="M276.109 101.242C277.123 101.165 277.852 99.877 277.737 98.3656C277.622 96.8541 276.707 95.6914 275.693 95.7685C274.679 95.8457 273.95 97.1335 274.065 98.6449C274.18 100.156 275.095 101.319 276.109 101.242Z" fill="#654B1E"/>
<path d="M275.368 97.2491C275.228 97.259 275.089 97.2126 274.983 97.1203C274.877 97.028 274.812 96.8974 274.802 96.757C274.792 96.6167 274.839 96.4782 274.931 96.372C275.023 96.2658 275.154 96.2006 275.294 96.1908C276.353 96.0462 277.439 95.0266 277.305 93.9295C277.296 93.86 277.302 93.7895 277.32 93.722C277.339 93.6546 277.371 93.5914 277.414 93.5362C277.457 93.481 277.51 93.4348 277.571 93.4003C277.632 93.3658 277.699 93.3436 277.769 93.3351C277.838 93.3265 277.909 93.3317 277.976 93.3504C278.044 93.369 278.107 93.4008 278.162 93.4439C278.217 93.487 278.264 93.5405 278.298 93.6014C278.333 93.6624 278.355 93.7295 278.363 93.799C278.582 95.5629 277.005 97.0234 275.449 97.2421L275.368 97.2491Z" fill="#654B1E"/>
<path d="M268.369 116.091C267.662 116.088 266.955 116.049 266.252 115.975C266.112 115.961 265.983 115.891 265.894 115.782C265.804 115.673 265.762 115.533 265.776 115.393C265.79 115.252 265.859 115.123 265.968 115.034C266.078 114.945 266.218 114.902 266.358 114.916C269.808 115.269 271.914 114.807 272.451 113.59C273.156 111.974 271.184 109.046 268.87 106.989C265.977 104.418 265.434 98.8226 267.706 95.0162C267.741 94.9564 267.789 94.9043 267.844 94.8627C267.9 94.8211 267.964 94.791 268.031 94.7739C268.099 94.7569 268.169 94.7533 268.238 94.7634C268.307 94.7735 268.373 94.797 268.433 94.8327C268.492 94.8684 268.544 94.9155 268.586 94.9713C268.627 95.0271 268.658 95.0906 268.675 95.1581C268.692 95.2256 268.695 95.2958 268.685 95.3646C268.675 95.4335 268.652 95.4997 268.616 95.5594C266.58 98.9673 267.028 103.938 269.572 106.199C271.516 107.928 274.511 111.519 273.421 114.017C272.817 115.4 271.121 116.091 268.369 116.091Z" fill="#C98348"/>
<path d="M271.639 121.845C271.639 121.845 271.491 130.378 266.309 130.872C262.22 131.264 257.659 127.193 254.314 122.265C253.429 120.96 252.63 119.599 251.922 118.19C258.117 120.79 264.873 122.423 270.101 122.021C270.63 122 271.145 121.94 271.639 121.845Z" fill="url(#paint27_linear_1296_9719)"/>
<path d="M270.101 122.035C269.395 123.309 268.08 125.302 267.342 125.464C266.45 125.655 259.892 124.893 254.314 122.289C253.429 120.985 252.63 119.624 251.922 118.215C258.117 120.804 264.873 122.42 270.101 122.035Z" fill="url(#paint28_linear_1296_9719)"/>
<path d="M267.815 154.883C246.098 159.328 238.111 125.165 238.111 125.165C250.215 142.034 258.731 145.167 267.085 144.313C267.085 144.313 267.311 149.362 267.815 154.883Z" fill="#E5AD83"/>
<path d="M64.5379 126.128C64.4514 126.128 64.3662 126.106 64.2898 126.066C64.2134 126.025 64.1482 125.966 64.0998 125.895C64.0514 125.823 64.0213 125.74 64.0122 125.654C64.0031 125.568 64.0152 125.481 64.0475 125.401C67.66 116.335 68.8559 114.137 69.5403 113.625C74.8319 109.66 77.0756 108.754 77.1673 108.715C77.2319 108.689 77.301 108.676 77.3706 108.677C77.4401 108.678 77.5088 108.693 77.5727 108.72C77.6365 108.748 77.6944 108.788 77.7428 108.838C77.7913 108.888 77.8295 108.946 77.8552 109.011C77.881 109.076 77.8937 109.145 77.8927 109.214C77.8917 109.284 77.8771 109.353 77.8495 109.416C77.822 109.48 77.7822 109.538 77.7323 109.587C77.6824 109.635 77.6235 109.673 77.5589 109.699C77.5377 109.699 75.3329 110.616 70.1753 114.472C69.2722 115.146 66.0795 123.161 65.0318 125.793C64.9927 125.892 64.9247 125.977 64.8366 126.037C64.7485 126.096 64.6444 126.128 64.5379 126.128Z" fill="#C98348"/>
<path d="M45.6572 128.357H45.6043C45.535 128.351 45.4677 128.331 45.4062 128.298C45.3447 128.265 45.2903 128.221 45.2461 128.167C45.2019 128.113 45.1687 128.051 45.1484 127.985C45.1281 127.918 45.1212 127.848 45.128 127.779C45.7771 121.178 47.3682 112.257 47.855 111.198C48.3065 110.228 49.8729 108.694 50.0493 108.521C50.0985 108.47 50.1575 108.429 50.2228 108.401C50.288 108.373 50.3582 108.359 50.4291 108.359C50.5 108.359 50.5703 108.373 50.6357 108.4C50.701 108.428 50.7602 108.468 50.8096 108.519C50.8591 108.57 50.8978 108.63 50.9234 108.696C50.9491 108.763 50.9613 108.833 50.9591 108.904C50.957 108.975 50.9406 109.045 50.9109 109.109C50.8813 109.174 50.839 109.231 50.7866 109.279C50.3456 109.71 49.1285 110.973 48.8146 111.646C48.4618 112.415 46.8566 120.988 46.1793 127.874C46.1679 128.005 46.1081 128.127 46.0116 128.217C45.9151 128.306 45.7887 128.356 45.6572 128.357V128.357Z" fill="#C98348"/>
<path d="M181.268 232.917C181.164 232.917 181.062 232.886 180.975 232.828C180.889 232.771 180.821 232.689 180.78 232.592C180.74 232.496 180.729 232.391 180.749 232.288C180.768 232.186 180.818 232.092 180.891 232.017L188.214 224.549C188.262 224.497 188.32 224.455 188.385 224.425C188.449 224.396 188.519 224.38 188.59 224.378C188.661 224.376 188.732 224.388 188.798 224.414C188.864 224.44 188.924 224.479 188.975 224.529C189.026 224.579 189.066 224.638 189.093 224.704C189.12 224.769 189.134 224.84 189.133 224.911C189.133 224.982 189.118 225.052 189.09 225.117C189.062 225.182 189.021 225.241 188.969 225.29L181.645 232.758C181.596 232.808 181.538 232.848 181.473 232.876C181.408 232.903 181.338 232.917 181.268 232.917V232.917Z" fill="#52BEB8"/>
<path d="M129.939 233.76C129.843 233.76 129.748 233.734 129.665 233.684C129.583 233.634 129.515 233.563 129.47 233.478L121.321 217.955C121.256 217.831 121.243 217.686 121.285 217.552C121.327 217.418 121.421 217.306 121.545 217.241C121.669 217.176 121.815 217.163 121.949 217.205C122.083 217.247 122.194 217.341 122.259 217.465L130.408 232.987C130.451 233.068 130.472 233.158 130.469 233.25C130.467 233.341 130.441 233.43 130.393 233.508C130.346 233.586 130.279 233.651 130.2 233.695C130.12 233.74 130.031 233.764 129.939 233.763V233.76Z" fill="#52BEB8"/>
<path d="M311.44 280.528C311.299 280.528 311.165 280.472 311.065 280.373C310.966 280.273 310.91 280.139 310.91 279.999C310.91 254.599 304.585 235.432 298.465 216.911C297.799 214.898 297.142 212.899 296.492 210.914C296.455 210.782 296.47 210.641 296.534 210.52C296.598 210.4 296.707 210.308 296.837 210.266C296.967 210.223 297.109 210.233 297.232 210.293C297.355 210.352 297.451 210.458 297.498 210.586C298.145 212.576 298.802 214.575 299.47 216.583C305.615 235.185 311.972 254.419 311.969 280.002C311.968 280.142 311.912 280.275 311.813 280.374C311.713 280.472 311.579 280.528 311.44 280.528Z" fill="#52BEB8"/>
<path d="M342.145 266.483C342.005 266.483 341.87 266.428 341.771 266.328C341.672 266.229 341.616 266.095 341.616 265.954C341.616 265.326 345.931 257.135 347.261 254.634L347.515 254.161C347.941 253.36 348.365 252.566 348.774 251.808C348.841 251.684 348.954 251.592 349.089 251.552C349.223 251.512 349.368 251.528 349.492 251.594C349.615 251.661 349.707 251.775 349.747 251.909C349.787 252.044 349.772 252.189 349.705 252.312C349.296 253.071 348.876 253.861 348.45 254.658L348.199 255.131C345.137 260.917 342.851 265.485 342.682 266.032C342.663 266.16 342.598 266.276 342.499 266.359C342.4 266.442 342.274 266.487 342.145 266.483Z" fill="#52BEB8"/>
<g opacity="0.25">
<path d="M110.388 193.914C107.961 202.134 102.07 210.36 91.3101 217.705C83.228 223.226 74.6696 224.408 65.6103 222.997C62.7176 217.853 59.8142 212.431 56.9673 206.819C66.1395 208.716 75.1812 207.432 86.4454 200.518C97.646 193.642 101.491 186.583 102.73 177.908L110.388 193.914Z" fill="#DDF1F3"/>
<path d="M115.507 204.596C112.582 214.201 106.354 222.462 97.9249 227.918C89.1054 233.637 80.7093 234.811 72.1721 234.229C71.1608 232.569 70.1437 230.865 69.1206 229.117C80.4095 229.869 87.6802 227.297 95.78 221.452C102.543 216.569 109.186 209.602 113.066 199.463L115.507 204.596Z" fill="#DDF1F3"/>
<path d="M404.788 253.008L404.139 254.112C401.623 258.426 398.664 263.771 395.108 269.913C375.79 269.966 358.902 260.889 354.249 242.439C356.895 237.265 359.491 231.98 362.038 226.585C367.175 241.366 386.299 254.228 404.788 253.008Z" fill="#DDF1F3"/>
<path d="M392.617 274.181C391.441 276.164 390.208 278.217 388.917 280.341C371.451 285.901 354.824 276.517 347.719 254.867C348.231 253.907 348.739 252.951 349.229 252.045C349.951 250.697 350.67 249.341 351.385 247.977C354.274 260.871 367.193 278.859 392.617 274.181Z" fill="#DDF1F3"/>
</g>
<path d="M436.245 198.779C436.135 198.779 436.027 198.745 435.937 198.681C435.847 198.617 435.78 198.527 435.744 198.423C435.707 198.319 435.705 198.206 435.736 198.1C435.767 197.995 435.83 197.901 435.917 197.833C439.208 195.244 441.988 191.713 443.177 189.529C443.244 189.405 443.357 189.313 443.492 189.273C443.626 189.233 443.771 189.248 443.895 189.315C444.018 189.382 444.11 189.496 444.15 189.63C444.19 189.765 444.175 189.91 444.108 190.033C442.87 192.312 439.984 195.985 436.573 198.666C436.48 198.739 436.364 198.779 436.245 198.779V198.779Z" fill="#C98348"/>
<path d="M412.719 202.222C412.593 202.222 412.471 202.178 412.375 202.097C412.279 202.016 412.215 201.904 412.194 201.78C412.174 201.656 412.197 201.529 412.262 201.421C412.326 201.313 412.427 201.232 412.546 201.192C415.95 200.003 419.679 197.516 422.515 194.535C422.563 194.482 422.62 194.44 422.684 194.41C422.748 194.38 422.817 194.364 422.888 194.361C422.959 194.358 423.029 194.37 423.095 194.395C423.161 194.42 423.222 194.458 423.273 194.507C423.324 194.556 423.365 194.614 423.393 194.679C423.421 194.744 423.436 194.814 423.437 194.884C423.437 194.955 423.424 195.025 423.397 195.09C423.37 195.156 423.331 195.215 423.281 195.265C420.335 198.362 416.451 200.952 412.895 202.193C412.838 202.213 412.779 202.222 412.719 202.222V202.222Z" fill="#C98348"/>
<path d="M468.852 165.339C468.105 167.177 467.261 168.974 466.323 170.722C444.775 174.201 409.056 171.925 385.635 161.653C385.099 159.956 384.678 158.224 384.376 156.47C409.723 165.237 430.142 171.834 468.852 165.339Z" fill="url(#paint29_linear_1296_9719)"/>
<path d="M467.526 174.479C439.625 174.479 442.941 161.543 427.496 160.216C432.636 157.348 439.572 160.216 445.735 164.616C451.898 169.015 468.902 173.749 474.049 167.695C477.428 163.716 475.975 159.934 474.574 157.818C475.68 157.343 476.731 156.752 477.71 156.054C483.45 162.04 480.769 174.479 467.526 174.479Z" fill="url(#paint30_linear_1296_9719)"/>
<g opacity="0.5">
<path d="M465.808 173.251C464.845 173.251 463.906 173.198 463.025 173.11C457.527 172.516 452.211 170.796 447.407 168.059C439.441 163.338 434.174 160.216 427.514 160.569C427.468 160.571 427.421 160.565 427.378 160.549C427.334 160.534 427.294 160.509 427.259 160.478C427.225 160.447 427.197 160.41 427.177 160.368C427.157 160.326 427.146 160.28 427.144 160.234C427.141 160.188 427.148 160.141 427.164 160.098C427.179 160.054 427.203 160.014 427.234 159.979C427.265 159.945 427.303 159.917 427.345 159.897C427.387 159.877 427.432 159.866 427.479 159.864C434.354 159.511 439.692 162.665 447.767 167.452C456.294 172.504 471.131 175.343 475.926 168.489C479.298 163.663 477.435 159.317 476.024 157.129C475.999 157.091 475.982 157.047 475.973 157.001C475.965 156.956 475.966 156.909 475.975 156.864C475.985 156.818 476.003 156.775 476.03 156.737C476.056 156.699 476.09 156.666 476.128 156.641C476.167 156.616 476.211 156.598 476.256 156.59C476.302 156.581 476.349 156.582 476.394 156.592C476.44 156.601 476.483 156.62 476.521 156.646C476.559 156.672 476.592 156.706 476.617 156.745C478.123 159.066 480.113 163.73 476.504 168.895C474.098 172.334 469.756 173.251 465.808 173.251Z" fill="#DD9127"/>
</g>
<path d="M487.496 121.298C488.149 123.722 499.209 116.589 497.021 113.675C494.365 110.098 486.815 118.762 487.496 121.298Z" fill="url(#paint31_linear_1296_9719)"/>
<path d="M456.004 86.5283C454.36 80.5663 456.089 72.2761 461.296 72.9005C465.374 73.3873 456.491 78.5943 456.004 86.5283Z" fill="url(#paint32_linear_1296_9719)"/>
<g opacity="0.25">
<path d="M391.925 151.517C391.883 151.518 391.841 151.51 391.802 151.496C391.562 151.408 385.921 149.277 382.982 146.557C382.945 146.527 382.914 146.489 382.892 146.446C382.869 146.404 382.856 146.357 382.852 146.309C382.848 146.261 382.855 146.212 382.871 146.167C382.886 146.121 382.911 146.079 382.944 146.044C382.977 146.008 383.016 145.98 383.06 145.96C383.104 145.941 383.152 145.93 383.2 145.93C383.248 145.929 383.296 145.939 383.341 145.957C383.385 145.976 383.425 146.004 383.459 146.039C386.281 148.653 391.992 150.801 392.049 150.822C392.127 150.851 392.193 150.906 392.234 150.978C392.276 151.05 392.29 151.135 392.276 151.216C392.261 151.298 392.218 151.372 392.154 151.426C392.089 151.479 392.009 151.507 391.925 151.507V151.517Z" fill="#654B1E"/>
</g>
<path d="M392.37 126.653C390.388 129.712 389.668 137.265 392.571 142.959C395.475 148.652 403.546 154.35 411.163 146.702L392.37 126.653Z" fill="url(#paint33_linear_1296_9719)"/>
<path d="M392.37 126.653C394.487 124.611 399.182 125.351 405.659 130.992C412.136 136.633 415.445 144.86 409.039 148.441C405.97 150.155 398.886 146.511 395.087 141.385C390.952 135.822 390.726 128.234 392.37 126.653Z" fill="url(#paint34_linear_1296_9719)"/>
<path d="M399.602 133.903C402.209 131.028 409.554 135.229 409.878 139.939C410.132 143.59 405.754 146.063 401.673 142.535C399.129 140.334 398.134 135.529 399.602 133.903Z" fill="url(#paint35_linear_1296_9719)"/>
<path d="M405.335 108.916C404.237 106.566 401.574 104.989 400.396 105.797C399.503 106.404 399.789 109.53 400.251 110.92C400.957 113.036 403.468 114.285 404.929 113.597C405.931 113.121 406.097 110.556 405.335 108.916ZM404.308 111.936C403.62 112.257 402.442 111.675 402.107 110.676C401.891 110.024 401.754 108.56 402.177 108.267C402.735 107.886 403.987 108.62 404.502 109.734C404.862 110.503 404.781 111.713 404.308 111.936Z" fill="url(#paint36_linear_1296_9719)"/>
<path d="M386.885 97.5385C384.712 96.1274 381.614 96.2121 381.039 97.5385C380.605 98.5298 382.51 101.024 383.643 101.955C385.371 103.366 388.155 103.095 389.026 101.737C389.626 100.788 388.405 98.5193 386.885 97.5385ZM387.622 100.639C387.213 101.282 385.904 101.416 385.093 100.745C384.56 100.304 383.664 99.1331 383.868 98.6674C384.137 98.0501 385.594 98.0113 386.617 98.6674C387.329 99.1366 387.904 100.202 387.608 100.639H387.622Z" fill="url(#paint37_linear_1296_9719)"/>
<path d="M409.451 67.0974C408.689 66.1026 406.047 66.6776 404.491 68.3251C403.408 69.4751 402.844 71.6518 403.546 72.322C404.573 73.2922 406.993 72.957 408.164 71.3872C408.929 70.3606 410.026 67.8453 409.451 67.0974ZM406.682 70.671C406.135 71.4083 404.996 71.5671 404.513 71.112C404.181 70.798 404.449 69.7714 404.957 69.2317C405.687 68.4591 406.933 68.1734 407.289 68.6531C407.561 69.0059 407.045 70.1877 406.682 70.671V70.671Z" fill="url(#paint38_linear_1296_9719)"/>
<path d="M422.409 87.1883C421.898 85.4244 419.841 81.6991 417.869 82.32C416.595 82.7186 415.869 85.9536 416.415 88.4936C416.962 91.0336 418.701 92.6705 420.628 93.0338C422.554 93.3972 422.917 88.9663 422.409 87.1883ZM420.416 90.6596C419.914 90.5413 419.458 90.2773 419.106 89.9006C418.754 89.524 418.521 89.0516 418.437 88.543C418.179 87.3506 418.522 85.8301 419.118 85.6432C420.046 85.3503 421.012 87.0931 421.252 87.9291C421.492 88.7652 421.326 90.829 420.416 90.6596Z" fill="url(#paint39_linear_1296_9719)"/>
<path d="M395.951 114.006C394.519 113.554 393.023 116.246 392.652 117.534C392.282 118.821 392.547 122.046 393.944 121.767C395.341 121.488 396.607 120.317 397.006 118.469C397.404 116.62 396.872 114.295 395.951 114.006ZM395.531 118.511C395.472 118.882 395.304 119.228 395.048 119.503C394.793 119.779 394.461 119.973 394.095 120.06C393.439 120.183 393.312 118.673 393.489 118.066C393.665 117.46 394.363 116.193 395.037 116.405C395.471 116.553 395.722 117.643 395.531 118.511Z" fill="url(#paint40_linear_1296_9719)"/>
<path d="M268.531 122.797C263.744 122.797 257.701 121.386 251.647 118.857C251.475 118.784 251.338 118.646 251.267 118.473C251.196 118.3 251.197 118.105 251.27 117.933C251.342 117.76 251.481 117.623 251.654 117.552C251.827 117.482 252.022 117.483 252.194 117.555C258.752 120.307 265.247 121.683 270.048 121.333C270.549 121.302 271.043 121.242 271.523 121.164C271.614 121.149 271.708 121.152 271.798 121.173C271.889 121.194 271.974 121.233 272.049 121.287C272.124 121.341 272.188 121.409 272.237 121.488C272.286 121.567 272.319 121.655 272.334 121.746C272.349 121.838 272.346 121.931 272.325 122.021C272.304 122.112 272.265 122.197 272.211 122.272C272.157 122.348 272.089 122.412 272.01 122.461C271.931 122.509 271.844 122.542 271.752 122.557C271.23 122.642 270.694 122.706 270.147 122.741C269.6 122.776 269.075 122.797 268.531 122.797Z" fill="#C98348"/>
<defs>
<linearGradient id="paint0_linear_1296_9719" x1="409.504" y1="145.29" x2="407.61" y2="128.897" gradientUnits="userSpaceOnUse">
<stop stop-color="#C98348"/>
<stop offset="1" stop-color="#DD9127"/>
</linearGradient>
<linearGradient id="paint1_linear_1296_9719" x1="407.335" y1="138.88" x2="421.735" y2="112.228" gradientUnits="userSpaceOnUse">
<stop stop-color="#51823B"/>
<stop offset="1" stop-color="#AAC76F"/>
</linearGradient>
<linearGradient id="paint2_linear_1296_9719" x1="405.264" y1="156.206" x2="408.549" y2="185.232" gradientUnits="userSpaceOnUse">
<stop stop-color="#E94E4E"/>
<stop offset="1" stop-color="#D33332"/>
</linearGradient>
<linearGradient id="paint3_linear_1296_9719" x1="402.735" y1="145.47" x2="403.084" y2="153.993" gradientUnits="userSpaceOnUse">
<stop stop-color="#E94E4E"/>
<stop offset="1" stop-color="#D33332"/>
</linearGradient>
<linearGradient id="paint4_linear_1296_9719" x1="391.703" y1="130.604" x2="378.188" y2="113.928" gradientUnits="userSpaceOnUse">
<stop stop-color="#51823B"/>
<stop offset="1" stop-color="#AAC76F"/>
</linearGradient>
<linearGradient id="paint5_linear_1296_9719" x1="463.638" y1="135.628" x2="474.641" y2="128.682" gradientUnits="userSpaceOnUse">
<stop stop-color="#C98348"/>
<stop offset="1" stop-color="#DD9127"/>
</linearGradient>
<linearGradient id="paint6_linear_1296_9719" x1="431.504" y1="143.075" x2="448.934" y2="117.354" gradientUnits="userSpaceOnUse">
<stop stop-color="#ECDE74"/>
<stop offset="1" stop-color="#F3CE63"/>
</linearGradient>
<linearGradient id="paint7_linear_1296_9719" x1="432.643" y1="117.837" x2="433.726" y2="147.037" gradientUnits="userSpaceOnUse">
<stop stop-color="#ECDE74"/>
<stop offset="1" stop-color="#F3CE63"/>
</linearGradient>
<linearGradient id="paint8_linear_1296_9719" x1="402.301" y1="139.174" x2="303.244" y2="162.344" gradientUnits="userSpaceOnUse">
<stop stop-color="#ECDE74"/>
<stop offset="1" stop-color="#F3CE63"/>
</linearGradient>
<linearGradient id="paint9_linear_1296_9719" x1="433.074" y1="124.991" x2="442.821" y2="140.598" gradientUnits="userSpaceOnUse">
<stop stop-color="#FFF1E0"/>
<stop offset="1" stop-color="#ECDE74"/>
</linearGradient>
<linearGradient id="paint10_linear_1296_9719" x1="433.218" y1="128.509" x2="438.997" y2="145.689" gradientUnits="userSpaceOnUse">
<stop stop-color="#F3CE63"/>
<stop offset="1" stop-color="#D2A651"/>
</linearGradient>
<linearGradient id="paint11_linear_1296_9719" x1="429.013" y1="147.933" x2="427.076" y2="143.318" gradientUnits="userSpaceOnUse">
<stop stop-color="#F9CBA2"/>
<stop offset="1" stop-color="#FCD7BA"/>
</linearGradient>
<linearGradient id="paint12_linear_1296_9719" x1="412.263" y1="220.947" x2="398.187" y2="231.848" gradientUnits="userSpaceOnUse">
<stop stop-color="#45A5A5"/>
<stop offset="1" stop-color="#308B85"/>
</linearGradient>
<linearGradient id="paint13_linear_1296_9719" x1="427.913" y1="161.765" x2="444.359" y2="183.627" gradientUnits="userSpaceOnUse">
<stop stop-color="white"/>
<stop offset="1" stop-color="#DDF1F3"/>
</linearGradient>
<linearGradient id="paint14_linear_1296_9719" x1="61.1722" y1="46.594" x2="64.2732" y2="87.5161" gradientUnits="userSpaceOnUse">
<stop stop-color="#E8E8EB"/>
<stop offset="1" stop-color="#D3D3D3"/>
</linearGradient>
<linearGradient id="paint15_linear_1296_9719" x1="68.0163" y1="46.0757" x2="71.1136" y2="86.9979" gradientUnits="userSpaceOnUse">
<stop stop-color="#E8E8EB"/>
<stop offset="1" stop-color="#D3D3D3"/>
</linearGradient>
<linearGradient id="paint16_linear_1296_9719" x1="73.5018" y1="174.79" x2="76.384" y2="187.539" gradientUnits="userSpaceOnUse">
<stop stop-color="#45A5A5"/>
<stop offset="1" stop-color="#308B85"/>
</linearGradient>
<linearGradient id="paint17_linear_1296_9719" x1="322.174" y1="182.106" x2="230.174" y2="286.772" gradientUnits="userSpaceOnUse">
<stop stop-color="#F3CE63"/>
<stop offset="1" stop-color="#D2A651"/>
</linearGradient>
<linearGradient id="paint18_linear_1296_9719" x1="234.358" y1="65.0336" x2="271.872" y2="127.966" gradientUnits="userSpaceOnUse">
<stop offset="0.04" stop-color="#654B1E"/>
<stop offset="1" stop-color="#2E1D12"/>
</linearGradient>
<linearGradient id="paint19_linear_1296_9719" x1="193.739" y1="89.2518" x2="231.253" y2="152.18" gradientUnits="userSpaceOnUse">
<stop offset="0.04" stop-color="#654B1E"/>
<stop offset="1" stop-color="#2E1D12"/>
</linearGradient>
<linearGradient id="paint20_linear_1296_9719" x1="272.691" y1="128.259" x2="281.182" y2="163.963" gradientUnits="userSpaceOnUse">
<stop offset="0.04" stop-color="#654B1E"/>
<stop offset="1" stop-color="#2E1D12"/>
</linearGradient>
<linearGradient id="paint21_linear_1296_9719" x1="136.631" y1="202.32" x2="228.392" y2="258.571" gradientUnits="userSpaceOnUse">
<stop stop-color="#04B90B"/>
<stop offset="1" stop-color="#308B85"/>
</linearGradient>
<linearGradient id="paint22_linear_1296_9719" x1="212" y1="235" x2="195.09" y2="278.238" gradientUnits="userSpaceOnUse">
<stop offset="0.541732" stop-color="#04B90B"/>
<stop offset="1" stop-color="#1F9D55"/>
<stop offset="1" stop-color="#308B85"/>
</linearGradient>
<linearGradient id="paint23_linear_1296_9719" x1="84.6495" y1="243.708" x2="146.4" y2="171.399" gradientUnits="userSpaceOnUse">
<stop stop-color="#04B90B"/>
<stop offset="1" stop-color="#308B85"/>
</linearGradient>
<linearGradient id="paint24_linear_1296_9719" x1="354.944" y1="200.204" x2="293.12" y2="271.105" gradientUnits="userSpaceOnUse">
<stop stop-color="#04B90B"/>
<stop offset="1" stop-color="#308B85"/>
</linearGradient>
<linearGradient id="paint25_linear_1296_9719" x1="378.714" y1="272.417" x2="340.907" y2="250.087" gradientUnits="userSpaceOnUse">
<stop stop-color="#04B90B"/>
<stop offset="1" stop-color="#308B85"/>
</linearGradient>
<linearGradient id="paint26_linear_1296_9719" x1="273.488" y1="316.317" x2="273.488" y2="341.276" gradientUnits="userSpaceOnUse">
<stop stop-color="white"/>
<stop offset="1" stop-color="#DDF1F3"/>
</linearGradient>
<linearGradient id="paint27_linear_1296_9719" x1="266.108" y1="135.977" x2="263.098" y2="124.893" gradientUnits="userSpaceOnUse">
<stop stop-color="#E94E4E"/>
<stop offset="1" stop-color="#D33332"/>
</linearGradient>
<linearGradient id="paint28_linear_1296_9719" x1="270.203" y1="117.347" x2="241.448" y2="129.567" gradientUnits="userSpaceOnUse">
<stop stop-color="white"/>
<stop offset="1" stop-color="#DDF1F3"/>
</linearGradient>
<linearGradient id="paint29_linear_1296_9719" x1="426.614" y1="151.581" x2="426.614" y2="177.637" gradientUnits="userSpaceOnUse">
<stop stop-color="#E8E8EB"/>
<stop offset="1" stop-color="#D3D3D3"/>
</linearGradient>
<linearGradient id="paint30_linear_1296_9719" x1="494.594" y1="199.283" x2="529.685" y2="233.668" gradientUnits="userSpaceOnUse">
<stop stop-color="#ECDE74"/>
<stop offset="1" stop-color="#F3CE63"/>
</linearGradient>
<linearGradient id="paint31_linear_1296_9719" x1="492.583" y1="123.881" x2="492.28" y2="114.43" gradientUnits="userSpaceOnUse">
<stop stop-color="#C98348"/>
<stop offset="1" stop-color="#DD9127"/>
</linearGradient>
<linearGradient id="paint32_linear_1296_9719" x1="459.253" y1="85.3218" x2="458.763" y2="75.5992" gradientUnits="userSpaceOnUse">
<stop stop-color="#C98348"/>
<stop offset="1" stop-color="#DD9127"/>
</linearGradient>
<linearGradient id="paint33_linear_1296_9719" x1="401.32" y1="130.813" x2="400.188" y2="156.054" gradientUnits="userSpaceOnUse">
<stop stop-color="#FFF1E0"/>
<stop offset="1" stop-color="#ECDE74"/>
</linearGradient>
<linearGradient id="paint34_linear_1296_9719" x1="407.43" y1="172.274" x2="414.073" y2="215.168" gradientUnits="userSpaceOnUse">
<stop stop-color="#FFF1E0"/>
<stop offset="1" stop-color="#ECDE74"/>
</linearGradient>
<linearGradient id="paint35_linear_1296_9719" x1="404.407" y1="138.372" x2="404.079" y2="154.173" gradientUnits="userSpaceOnUse">
<stop stop-color="#F3CE63"/>
<stop offset="1" stop-color="#D2A651"/>
</linearGradient>
<linearGradient id="paint36_linear_1296_9719" x1="388.302" y1="67.6586" x2="394.991" y2="87.1531" gradientUnits="userSpaceOnUse">
<stop stop-color="#DBE8C4"/>
<stop offset="1" stop-color="#AAC76F"/>
</linearGradient>
<linearGradient id="paint37_linear_1296_9719" x1="374.643" y1="65.3899" x2="380.051" y2="83.0323" gradientUnits="userSpaceOnUse">
<stop stop-color="#DBE8C4"/>
<stop offset="1" stop-color="#AAC76F"/>
</linearGradient>
<linearGradient id="paint38_linear_1296_9719" x1="427.835" y1="46.4917" x2="414.743" y2="60.7192" gradientUnits="userSpaceOnUse">
<stop stop-color="#DBE8C4"/>
<stop offset="1" stop-color="#AAC76F"/>
</linearGradient>
<linearGradient id="paint39_linear_1296_9719" x1="440.221" y1="45.2537" x2="431.356" y2="63.397" gradientUnits="userSpaceOnUse">
<stop stop-color="#DBE8C4"/>
<stop offset="1" stop-color="#AAC76F"/>
</linearGradient>
<linearGradient id="paint40_linear_1296_9719" x1="383.367" y1="83.6672" x2="388.917" y2="100.311" gradientUnits="userSpaceOnUse">
<stop stop-color="#DBE8C4"/>
<stop offset="1" stop-color="#AAC76F"/>
</linearGradient>
</defs>
</svg>
